<?xml version="1.0" encoding="UTF-8"?> <svg xmlns="http://www.w3.org/2000/svg" xmlns:xlink="http://www.w3.org/1999/xlink" version="1.1" id="Layer_1" x="0px" y="0px" viewBox="0 0 200 200" style="enable-background:new 0 0 200 200;" xml:space="preserve"> <style type="text/css"> .st0{fill:#D31B1F;} .st1{fill:#060606;} .st2{fill:#FEFEFE;} .st3{fill:#008971;} .st4{fill:#005C61;} .st5{fill:#076165;} .st6{fill:#005C62;} .st7{fill:#006564;} .st8{fill:#009476;} .st9{fill:#00A594;} .st10{fill:#00B2AB;} .st11{fill:#015C61;} .st12{fill:#015D62;} </style> <g> <path class="st3" d="M164.4,96c0,4.4-0.1,8.9,0,13.3c0,1.2-0.5,1.5-1.4,1.6c-0.2,0-0.4,0-0.6,0c-4.7,0.3-4.7,0.3-4.7-4.3 c0-7.9,0-15.8,0-23.8c0-1.3,0.5-1.6,1.6-1.7c5-0.3,5-0.3,5,4.7C164.4,89.2,164.4,92.6,164.4,96z"></path> <path class="st4" d="M56.2,129.8c0,2.1,0,4.2,0,6.3c0,1-0.4,1.1-1.2,1.1c-0.8,0-1.2-0.2-1.2-1.2c0.1-1.5,0-3,0-4.4 c0-0.8-0.2-1.2-1.1-1.1c-1.4,0.1-2.8,0.1-4.1,0c-0.8,0-1.1,0.2-1.1,1c0.1,1.5,0,3.1,0,4.6c0,1-0.4,1.1-1.2,1.1 c-0.8,0-1.2-0.2-1.2-1.1c0.1-4.2,0.1-8.4,0-12.6c0-1.1,0.5-1.2,1.3-1.2c0.8,0,1.1,0.4,1.1,1.2c-0.1,1.4,0,2.8,0,4.1 c0,0.7,0.2,0.9,0.9,0.9c1.5,0,3.1,0,4.6,0c0.6,0,0.8-0.2,0.8-0.8c0-1.3,0-2.7,0-4c0-0.9,0.1-1.4,1.1-1.5c1.2,0,1.2,0.6,1.2,1.5 C56.2,125.8,56.2,127.8,56.2,129.8z"></path> <path class="st4" d="M36.7,137.3c-0.7,0-1.9-0.3-3.2-0.8c-0.9-0.4-0.7-1-0.5-1.6c0.3-0.8,0.7-0.6,1.3-0.3c1.2,0.6,2.4,0.8,3.7,0.7 c1-0.1,1.7-0.6,1.9-1.6c0.2-1-0.2-1.7-1-2.2c-1.2-0.6-2.4-1.1-3.6-1.7c-1.3-0.6-2.3-1.6-2.4-3.1c-0.3-2.3,0.8-3.8,3.1-4.4 c1.7-0.4,3.4-0.2,5,0.3c1,0.3,0.8,1,0.6,1.7c-0.3,0.9-0.8,0.5-1.3,0.3c-1-0.5-2.1-0.6-3.2-0.5c-0.8,0.1-1.6,0.4-1.8,1.3 c-0.3,1,0.1,1.7,0.9,2.2c1.2,0.7,2.6,1.2,3.8,1.9c2.2,1.2,3,3.7,1.7,5.8C40.8,137,39.1,137.3,36.7,137.3z"></path> <path class="st4" d="M64.7,129.7c0-2.1,0-4.2,0-6.3c0-0.8,0.2-1.1,1-1c2.1,0.1,4.2,0,6.3,0c0.8,0,1,0.2,1,1c0,0.7-0.2,1-1,1 c-1.3,0-2.7,0-4,0c-0.7,0-1,0.2-1,1c-0.1,3.7-0.2,3.7,3.4,3.7c0.4,0,0.8,0,1.1,0c0.7-0.1,0.9,0.3,0.9,0.9c0,0.6,0,1.1-0.9,1.1 c-1.2-0.1-2.4,0-3.6,0c-0.8,0-1,0.3-1,1c0.1,1.3,0,2.6,0,3.9c0.1,1-0.2,1.4-1.2,1.4c-1,0-1.2-0.4-1.1-1.3 C64.8,133.8,64.7,131.8,64.7,129.7z"></path> <path class="st5" d="M8.1,129.7c0-2.1,0-4.2,0-6.3c0-0.9,0.4-1.2,1.2-1.2c0.8,0,1.3,0.2,1.2,1.2c-0.1,4.2-0.1,8.4,0,12.6 c0,0.9-0.3,1.2-1.1,1.2c-0.9,0-1.3-0.2-1.2-1.2C8.2,133.9,8.1,131.8,8.1,129.7z"></path> <path class="st4" d="M29.8,129.7c0,2.1-0.1,4.3,0,6.4c0,1-0.5,1-1.2,1.1c-0.7,0-1.1-0.1-1.1-1c0-4.3,0-8.6,0-12.8 c0-0.9,0.4-1.1,1.1-1.1c0.6,0,1.3,0,1.3,1C29.7,125.4,29.8,127.6,29.8,129.7z"></path> <path class="st6" d="M30.5,102c-0.3-3.7-1.6-5.3-5.3-6.3c-0.2,0-0.3-0.2-0.6-0.3c0.2-0.1,0.3-0.2,0.4-0.2c2.8-1.2,4-3.4,4-6.3 c0-3-1.4-5.2-4.1-6.4c-0.9-0.4-2-0.7-3-0.9c-5.1-1.1-10.1-0.5-15.2,0.1c-0.8,0.1-1.3,0.6-1.5,1.3C5,83.8,5,84.7,5,85.6 c0.1,1.1,0.4,1.6,1.6,1.1c1.2-0.5,1.6,0,1.6,1.3c-0.1,6.9,0,13.7-0.1,20.6c0,1.5,0.5,1.9,1.8,2c3.2,0.3,6.4,0.4,9.6,0.3 c2.3-0.1,4.5-0.5,6.7-1.4C29.1,108.2,30.8,105.3,30.5,102z M12.8,86.1c2.5-0.2,4.8-0.3,7.1,0.2c2.1,0.5,3,1.6,3,3.4 c0,2-1,3-3.1,3.5c-1.6,0.4-3.1,0.2-4.7,0.3c-0.6,0-0.8-0.2-0.7-0.7c0-0.9,0-1.8,0-2.7C14.4,88.5,14.1,87.1,12.8,86.1z M22.1,105.5 c-2.3,1-4.8,0.6-7.2,0.5c-0.5,0-0.5-0.5-0.5-0.8c0-1,0-2,0-3c0,0,0.1,0,0.1,0c0-1.2-0.5-2.9,0.1-3.6c0.7-0.8,2.4-0.3,3.7-0.3 c1,0,2.1,0,3.1,0.3c1.8,0.5,2.6,1.2,2.7,3C24.3,103.5,23.7,104.9,22.1,105.5z"></path> <path class="st6" d="M118.4,90.8c-1.3-5.6-5.7-8.9-12-9.6c-4.2-0.5-8.4-0.2-12.5,0.3c-2,0.2-2.5,0.6-2.7,2.6c-0.1,0.6,0,1.1,0,1.7 c0.1,1,0.3,1.7,1.6,1.2c1.1-0.4,1.6,0,1.5,1.3c-0.1,3.4,0,6.9,0,10.3c0,3.6,0,7.2,0,10.7c0,0.9,0.3,1.3,1.1,1.3 c3.9,0.4,7.8,0.7,11.7,0c4.5-0.8,8.3-2.9,10.3-7.3C119.2,99.3,119.4,95,118.4,90.8z M112,100.5c-1.1,3.3-3.6,5.3-7,5.6 c-4.5,0.3-4.5,0.3-4.5-4.1c0-3.9,0-7.8,0-11.7c0-1.4-0.2-2.6-1.2-3.9c2.4-0.1,4.7-0.2,6.9,0.2c3.9,0.8,6,3.2,6.3,7.2 C112.8,96,112.8,98.3,112,100.5z"></path> <path class="st6" d="M61.3,94.2c-0.4-7.1-4.1-12.7-12-13.5c-6.4-0.7-13,2-15,9.8c-0.9,3.4-0.9,6.9-0.2,10.3 c1.1,4.9,3.8,8.5,8.8,9.9c5.2,1.5,10.2,0.9,14.4-3c3.3-3.2,4-7.3,4-11.6C61.3,95.5,61.3,94.9,61.3,94.2z M53.8,101.8 c-0.9,2.8-3,4.3-5.9,4.3c-3.5,0-5.6-1.2-6.7-4.2c-0.7-1.9-0.9-3.9-0.9-5.9c-0.1-2,0.2-3.9,0.9-5.8c1-2.8,3.2-4.3,6.2-4.3 c3.1,0,5.4,1.4,6.3,4.4C55.1,94.1,55.1,97.9,53.8,101.8z"></path> <path class="st6" d="M88.8,109c-1.8-3-3.4-6.1-5.1-9.2c-0.3-0.5-0.6-0.9,0.2-1.4c3.7-2.2,4.7-5.8,4.1-9.7c-0.5-4-3.3-6-7-7 c-5.2-1.3-10.4-0.9-15.6-0.1c-0.8,0.1-1.1,0.6-1.4,1.2c-0.2,0.7-0.3,1.5-0.3,2.3c0,1.8,0.1,1.9,1.8,1.6c1-0.2,1.4-0.1,1.4,1.1 c-0.1,3.6,0,7.2,0,10.7c0,3.6,0.1,7.3,0,10.9c0,1.1,0.4,1.4,1.3,1.5c1.3,0.1,2.6,0.1,3.9,0c0.9-0.1,1.2-0.5,1.2-1.4 c-0.1-1.7-0.1-3.3,0-5c0-1.2-0.5-2.6,0.2-3.5c0.7-0.8,2.2-0.2,3.3-0.4c0.8-0.2,1,0.1,1.3,0.7c1,2.2,2,4.3,3,6.4 c1.6,3.2,2.1,3.5,5.7,3.2c0.4,0,0.8-0.2,1.3-0.2C89.1,110.5,89.4,110.1,88.8,109z M78.6,95.2c-1.6,0.6-3.4,0.6-5,0.8 c-0.7,0.1-0.8-0.3-0.8-0.8c0-1.8,0-3.5,0-5.3c0-1.4-0.3-2.7-1.6-3.8c2.5-0.3,4.8-0.2,7,0.3c2.2,0.5,3.4,1.9,3.5,3.9 C81.8,92.7,80.8,94.4,78.6,95.2z"></path> <path class="st7" d="M153.1,102c-0.3-3.7-1.7-5.3-5.2-6.3c-0.2,0-0.3-0.2-0.6-0.3c0.2-0.1,0.3-0.2,0.4-0.2c2.9-1.3,4-3.5,3.9-6.6 c-0.1-3-1.5-4.9-4.1-6.2c-2.5-1.1-5.1-1.5-7.8-1.5v0c-3.4-0.2-6.8,0.2-10.2,0.6c-1,0.1-1.5,0.7-1.7,1.6c-0.2,0.8-0.2,1.7-0.2,2.6 c0.1,1,0.4,1.5,1.5,1.1c1.1-0.4,1.7-0.2,1.6,1.3c-0.1,7.1,0,14.1-0.1,21.2c0,1,0.3,1.3,1.2,1.4c2.6,0.3,5.2,0.5,7.8,0.3 c3.1,0.2,6.1-0.2,8.9-1.4C151.7,108.2,153.4,105.3,153.1,102z M135.3,86.1c2.5-0.3,4.9-0.3,7.4,0.2c1.9,0.4,2.9,1.7,2.8,3.4 c-0.1,1.9-1,3-3,3.5c-1.8,0.4-3.7,0.3-5.5,0.2c0-1.5,0-2.9,0-4.4C136.9,87.8,136.4,86.7,135.3,86.1z M144.3,105.7 c-2,0.7-4.1,0.4-6.2,0.4c-0.8,0-1.1-0.3-1.1-1.2c0.1-1.6,0.1-3.2,0-4.8c-0.1-1.3,0.2-2.1,1.7-1.8c0,0,0,0,0.1,0c0,0,0,0,0,0 c1.7,0.2,3.5-0.1,5.2,0.3c2,0.5,2.7,1.3,2.9,3.1C146.9,103.8,146.1,105.1,144.3,105.7z"></path> <path class="st8" d="M175.9,105.2c-0.6,1.3-0.9,2.8-1.1,4.2c-0.2,1-0.8,1.4-1.7,1.5c-0.1,0-0.3,0-0.4,0c-4.3,0.2-4.6-0.2-3.4-4.2 c1.7-6.1,3.6-12.2,6-18.1c0.6-1.5,1.4-2.9,2.8-3.9c0.4-0.3,0.4-0.5,0.2-0.9c-0.5-0.8-0.9-1.7-1.4-2.5c0.7-0.4,1.4-0.5,2.2-0.5 c1.9-0.3,2.2-0.1,2.5,1.8c0.3,1.9-0.1,3.8-0.1,5.7c-0.3,2.6-1.6,4.9-2.2,7.3c-0.2,0.7-0.4,1.4-0.7,2c-0.6,1.9-0.6,1.9,1.4,2.2 c0.4,0.1,0.8,0.1,1.2,0.4c0.9,1.6,0.5,3.1-0.2,4.6C179.2,105.2,177.5,104.9,175.9,105.2z"></path> <path class="st9" d="M180.8,104.9c-0.2-1.5,0.7-3,0-4.5c0.8-0.8,1.8-0.4,2.7-0.5c1.5-0.1,1.6-0.1,1.1-1.6c-0.9-2.6-1.9-5.2-3-7.7 c-0.3-0.6-0.5-1.2-0.4-1.9c-0.6-0.5-0.4-1.1-0.3-1.7c0.3-1.4,0.2-2.9,0.1-4.4c-0.1-1.2-0.6-2-2-1.8c1.5-0.4,2.9-0.1,4.3,0.2 c0.4,0.1,0.8,0.3,1,0.8c1.2,2.4,2.5,4.8,3.3,7.4c0.5,3,0.2,6,0.3,9c0,1.8,0.1,3.5,0,5.3c-0.1,1.4-0.4,1.7-1.9,1.7 C184.2,105,182.5,105.2,180.8,104.9z"></path> <path class="st10" d="M194.8,109.2c-0.4-0.9-0.6-2-0.9-3c-1.9-5.8-3.7-11.6-6.3-17.1c-0.4,1.4-0.3,2.8-0.3,4.3c0,3.2,0,6.4,0,9.6 c0,2,0,2-2,2c-1.5,0-3.1,0-4.6,0c-1.6,0.1-3.3-0.3-4.9,0.3c2.3,0,4.6,0,6.9,0c1.5,0,3.3-0.5,4.3,0.2c1.1,0.7,1.1,2.7,1.5,4.1 c0.2,0.8,0.7,1.3,1.6,1.4c1.3,0.1,2.7,0.1,4-0.3C194.8,110.4,195.3,110.1,194.8,109.2z"></path> <path class="st11" d="M133.6,129.4c1.8-0.9,2.2-2.5,1.9-4.2c-0.3-1.6-1.5-2.3-2.9-2.7c-2-0.5-4.1-0.4-6.1-0.1 c-0.6,0.1-0.6,0.5-0.6,0.9c0,4.3,0,8.6,0,12.9c0,0.6,0.1,0.8,0.8,0.9c2,0.3,4.1,0.3,6.1-0.1c2-0.4,3.2-1.7,3.3-3.4 C136.3,131.3,135.8,130.4,133.6,129.4z M128.1,126c0,0,0-0.1,0-0.1c-0.3-1.5,0.4-2,1.6-1.7c1.3,0,2.4,0,3.2,1 c0.8,1,0.4,2.7-0.8,3.2c-1.2,0.5-2.6,0.7-3.8,0.2C127.7,128.2,128.2,126.9,128.1,126z M132.3,135.1c-1.2,0.4-2.4,0.2-3.7,0.2 c-0.4,0-0.6-0.3-0.5-0.7c0-0.6,0-1.1,0-1.7c0-2.5,0-2.5,2.6-2.3c2.4,0.2,3.1,0.7,3.1,2.3C133.8,134,133.4,134.7,132.3,135.1z"></path> <path class="st11" d="M193.1,127.3c-0.4-2.7-2.1-4.4-4.8-4.9c-1.9-0.3-3.9-0.2-5.8,0c-0.8,0.1-1.1,0.3-1,1.1c0,2,0,4.1,0,6.2 c0,1,0,2.1,0,3.1c0,4.7,0.2,4.9,5,4.5c3.7-0.3,6.1-2.2,6.6-5.5C193.3,130.3,193.3,128.8,193.1,127.3z M190.8,131.1 c-0.3,3.1-3.4,5.1-6.4,4.2c-0.6-0.2-0.5-0.6-0.5-1c0-1.5,0-3,0-4.4c0,0-0.1,0-0.1,0c0-1.5,0-3.1,0-4.6c0-0.8,0.4-1.1,1.1-1.1 c0.9,0,1.8,0,2.7,0.2c2,0.4,3,1.5,3.2,3.5C190.9,128.9,190.9,130,190.8,131.1z"></path> <path class="st4" d="M144.2,122.1c-3.8,0.2-6.1,3.1-6.1,7.6c-0.1,6.5,4.7,8.6,9.1,7.2c3-0.9,4.1-3.4,4.3-6.3 C151.8,126,149.7,121.8,144.2,122.1z M149,129.5c0,1,0,1.8-0.3,2.6c-0.6,2.2-1.8,3.3-3.9,3.3c-2.1,0-3.4-0.9-4-3.1 c-0.6-2-0.5-3.9,0.3-5.9c0.7-1.6,1.9-2.4,3.7-2.3c1.7,0,2.9,0.8,3.6,2.4C148.9,127.5,149,128.5,149,129.5z"></path> <path class="st4" d="M83.8,122.4c-4.6-1.4-8.3,1.1-8.9,6.2c-0.7,6.5,3.5,9.9,9,8.3c2.8-0.8,4.3-3.5,4.3-7.3 C88.2,125.9,86.6,123.3,83.8,122.4z M85.2,133c-0.7,1.6-2,2.4-3.7,2.3c-1.7,0-3-0.8-3.6-2.5c-0.8-2.1-0.8-4.2,0-6.3 c0.6-1.7,1.8-2.5,3.6-2.5c1.9,0,3.1,0.7,3.8,2.4c0.5,1,0.5,2.1,0.6,3.1C85.7,130.8,85.7,132,85.2,133z"></path> <path class="st12" d="M23.9,135.5c-0.6-1.2-1.2-2.4-1.9-3.5c-0.5-0.8-0.5-1.3,0.4-1.9c1.6-1.1,1.9-2.9,1.5-4.7 c-0.4-1.9-1.7-2.6-3.4-3c-1.8-0.4-3.6-0.3-5.4-0.1c-0.8,0.1-0.9,0.4-0.9,1.1c0,2.1,0,4.2,0,6.3c0,2.1,0,4.2,0,6.3 c0,0.9,0.3,1.2,1.1,1.2c0.9,0,1.3-0.3,1.2-1.2c-0.1-1.2,0-2.4,0-3.6c0-0.3-0.1-0.7,0.3-0.9c0.9-0.5,2.5,0.1,2.9,1 c0.7,1.4,1.3,2.8,2,4.1c0.6,1,1.7,0.8,2.4,0.4C25,136.6,24.1,136,23.9,135.5z M19.5,129.4c-2.6,0.7-3,0.4-3-2.6c0-0.1,0-0.2,0-0.3 c0.4-0.8-0.9-2.3,0.9-2.4c2.5-0.3,4,0.5,4.3,2C22,127.8,21.2,128.9,19.5,129.4z"></path> <path class="st4" d="M103.8,128.1c-0.6-4.7-4.6-7.2-9.1-5.6c-2.7,0.9-4.2,3.5-4.2,7.4c0,0.4,0,0.9,0.1,1.4c0.3,3.4,2.7,5.8,5.8,6 c3.8,0.3,6.4-1.5,7.3-4.9C103.9,131,103.9,129.5,103.8,128.1z M101.1,132.2c-0.5,2-1.8,3-3.7,3.1c-2,0.1-3.4-0.8-4-2.9 c-0.6-1.9-0.6-3.8,0.1-5.7c0.6-1.7,1.8-2.6,3.5-2.6c2-0.1,3.2,0.7,3.9,2.4c0.4,1,0.6,2.1,0.6,3.3 C101.5,130.6,101.3,131.4,101.1,132.2z"></path> <path class="st4" d="M118.1,126.7c-0.5-2.1-1.8-3.4-3.8-4c-2.3-0.7-4.7-0.5-7.1-0.2c-0.8,0.1-0.6,0.6-0.6,1c0,2.1,0,4.2,0,6.3 c0,2.1,0,4.2,0,6.3c0,0.7,0.2,1,0.9,1.1c1.3,0.1,2.6,0.3,3.8,0.2c3.9-0.2,6.2-2.1,6.8-5.8C118.5,129.9,118.5,128.3,118.1,126.7z M115.4,132.8c-0.8,2-4.1,3.3-6.1,2.5c-0.6-0.2-0.4-0.7-0.4-1.1c0-1.5,0-2.9,0-4.4c0-1.5,0-3,0-4.4c0-0.8,0.2-1.1,1-1.2 c1.1,0,2.2,0,3.3,0.3c1.2,0.3,2.1,1,2.4,2.2C116.2,128.7,116.2,130.7,115.4,132.8z"></path> <path class="st4" d="M177.9,135.5c-0.5-1.2-1.2-2.3-1.8-3.4c-0.5-0.8-0.6-1.3,0.4-2c1.6-1.2,1.9-3,1.5-4.9 c-0.4-1.8-1.8-2.5-3.4-2.8c-1.8-0.4-3.6-0.3-5.4-0.1c-0.8,0.1-1,0.3-1,1.1c0.1,2.1,0,4.2,0,6.3c0,2,0,4.1,0,6.1 c0,0.9,0.2,1.3,1.2,1.3c0.9,0,1.3-0.3,1.2-1.2c-0.1-1-0.1-2,0-3c0-0.5-0.4-1.5,0.6-1.5c0.9,0,2.2-0.8,2.7,0.9 c0.5,1.4,1.3,2.8,2,4.1c0.6,1.1,1.7,0.9,2.5,0.5C179.1,136.5,178.1,136,177.9,135.5z M173.8,129.3c-2.9,0.9-3.3,0.5-3.3-2.6 c0-2.8,0.5-3.1,3.2-2.5c1.3,0.3,2.2,1,2.2,2.4C175.9,128,175.2,128.9,173.8,129.3z"></path> <path class="st4" d="M165.4,135.9c-1.2-4.2-2.6-8.3-4.3-12.4c-0.4-0.9-0.9-1.4-1.9-1.3c-1-0.1-1.6,0.3-2,1.3c-1.6,3.9-3,7.9-4.1,12 c-0.1,0.5-0.9,1.3,0.3,1.5c0.8,0.2,1.6,0.3,2-0.9c0.6-2.3,0.7-2.3,3.1-2.3c0.3,0,0.6,0,0.9,0c1,0,2-0.2,2.8,0.1 c0.8,0.4,0.6,1.6,1,2.4c0,0.1,0,0.2,0.1,0.3c0.5,0.8,1.3,0.5,1.9,0.3C166,136.9,165.6,136.3,165.4,135.9z M157.3,132.1 c-0.2,0-0.4,0-0.6-0.1c0.6-2.5,1.6-4.8,2.5-7.4c1.1,2.5,1.8,4.9,2.7,7.5C160.2,132.1,158.8,132.1,157.3,132.1z"></path> </g> </svg> 