<?xml version="1.0" encoding="UTF-8"?> <svg xmlns="http://www.w3.org/2000/svg" xmlns:xlink="http://www.w3.org/1999/xlink" version="1.1" id="Layer_1" x="0px" y="0px" viewBox="0 0 200 200" style="enable-background:new 0 0 200 200;" xml:space="preserve"> <style type="text/css"> .st0{fill:#402022;} </style> <g> <path class="st0" d="M74.2,85.6c2.8-1,4.2,0.3,5.4,2.5c2.3,4.2,5,8.3,7.5,12.4c0.4,0.7,0.9,1.3,1.4,2.2c2.7-4.4,5.2-8.6,7.8-12.7 c0.4-0.7,0.8-1.4,1.3-2.1c1.8-2.9,1.8-2.9,5.4-2.4c0,9.5,0,19,0,28.7c-1.7,0-3.4,0-5.3,0c0-5,0-10.1,0-15.8c-0.7,0.8-1,1.2-1.3,1.6 c-1.7,2.8-3.4,5.6-5.2,8.4c-1.1,1.7-4.3,1.7-5.3,0c-2-3.2-3.9-6.4-6.3-9.4c0,5.1,0,10.1,0,15.3c-1.9,0-3.6,0-5.3,0 C74.2,104.7,74.2,95,74.2,85.6z"></path> <path class="st0" d="M29.3,79.8c2,0,3.7,0,5.5,0c0,1.2,0,2.2,0,3.3c0,7.3,0,14.7,0,22c-0.1,7.4-4.3,13.2-11.2,14.7 c-8.4,1.7-15.3-1.4-18.2-9.1c-0.7-1.7-0.8-3.1,1.4-3.7c1-0.3,1.9-0.9,3-1.5c0.1,0.5,0.3,0.9,0.3,1.3c1,5.7,5,8.9,10.4,8.5 c4.9-0.3,8.6-4.5,8.7-10c0.1-7.7,0-15.5,0-23.2C29.3,81.4,29.3,80.6,29.3,79.8z"></path> <path class="st0" d="M54.7,84.9c-8.9-0.1-15.3,6.1-15.4,14.8c-0.1,8.6,6.2,15,14.8,15.1c8.9,0.1,15.4-6.2,15.5-14.8 C69.6,91.5,63.2,85,54.7,84.9z M54.2,110c-5.3-0.2-9.5-4.6-9.4-10.1c0.1-5.6,4.4-10.1,9.7-10c5.3,0.1,9.6,4.7,9.5,10.2 C63.9,105.7,59.5,110.1,54.2,110z"></path> <path class="st0" d="M158.1,107.6c-1.7-2.1-3.4-4.2-5.2-6.4c0.5-0.3,0.9-0.5,1.2-0.7c3.1-1.8,4.6-5,4-8.5c-0.5-3.1-2.9-6-6.2-6.3 c-4.3-0.4-8.7-0.1-13-0.1c0,9.6,0,19.1,0,28.8c1.9,0,3.6,0,5.5,0c0-4.3,0-8.5,0-13.4c1.3,0.8,2.4,1.1,2.9,1.8 c2.9,3.5,5.7,7,8.5,10.5c0.4,0.4,0.8,1.1,1.3,1.1c2,0.1,4.1,0.1,6.5,0.1C161.6,111.9,159.8,109.8,158.1,107.6z M150.1,96.5 c-1.8,0.1-3.7,0-5.6,0c0-2.3,0-4.2,0-6.2c1.9,0,3.8-0.1,5.7,0c1.7,0.2,2.6,1.4,2.5,3.1C152.6,95.2,151.8,96.4,150.1,96.5z"></path> <path class="st0" d="M134.6,112.6c-3.7-8.6-7.4-17.2-11-25.8c-0.6-1.5-1.6-1.4-2.8-1.5c-1.4-0.1-2,0.4-2.5,1.7 c-3.2,7.7-6.5,15.3-9.8,23c-0.6,1.4-1.2,2.8-1.8,4.3c3.1,0.1,5.8,0.1,5.8,0.1l2.8-6.1l11.2-0.1l3,6.3c0,0,4.2,0,5.9,0 C134.9,113.6,134.8,113.1,134.6,112.6z M117.2,102.9c1.2-2.8,2.3-5.5,3.7-8.6c1.3,3.1,2.4,5.7,3.7,8.6 C122.1,102.9,119.8,102.9,117.2,102.9z"></path> <path class="st0" d="M194.3,112.6c-3.7-8.6-7.4-17.2-11-25.8c-0.6-1.5-1.6-1.4-2.8-1.5c-1.4-0.1-2,0.4-2.5,1.7 c-3.2,7.7-6.5,15.3-9.8,23c-0.6,1.4-1.2,2.8-1.8,4.3c3.1,0.1,5.8,0.1,5.8,0.1l2.8-6.1l11.2-0.1l3,6.3c0,0,4.2,0,5.9,0 C194.7,113.6,194.5,113.1,194.3,112.6z M177,102.9c1.2-2.8,2.3-5.5,3.7-8.6c1.3,3.1,2.4,5.7,3.7,8.6 C181.8,102.9,179.6,102.9,177,102.9z"></path> </g> </svg> 