<?xml version="1.0" encoding="UTF-8"?> <svg xmlns="http://www.w3.org/2000/svg" xmlns:xlink="http://www.w3.org/1999/xlink" version="1.1" id="Layer_1" x="0px" y="0px" viewBox="0 0 200 200" style="enable-background:new 0 0 200 200;" xml:space="preserve"> <style type="text/css"> .st0{fill-rule:evenodd;clip-rule:evenodd;fill:#FFFFFF;} .st1{fill:#FFFFFF;} .st2{fill:#CBCACA;} .st3{fill-rule:evenodd;clip-rule:evenodd;fill:#CBCACA;} .st4{fill-rule:evenodd;clip-rule:evenodd;} </style> <image style="overflow:visible;enable-background:new ;" width="292" height="150" id="Imagen_56" transform="matrix(0.6333 0 0 0.6333 0.5432 242.5)"> </image> <g> <path d="M11.9,107c0.1-0.1,2.4,8.8,15,7.3c-2.5-5.9-10.2-9.7-12-9.8c0.3-0.3,2.6-1.9,2.9-2.1c-0.5,1.6,6.8,8.2,12.4,6.4 c-1.5-4.5-7.7-8.3-9.3-8.3c0.7-0.3,1.3-0.8,2-1.2c-0.4,0.9,5,6,10.7,5.6c0-2.7-6.1-7.7-7.3-7.3l1.7-0.9c0.8,1.8,6.1,5.7,9.7,5.1 c-3-6.2-6.7-6.5-6.8-6.5c1-0.5,1.6-0.8,1.8-0.8c0,1.7,5.2,5.4,8.8,4.5c-0.9-2.9-3.4-5.1-6.5-5.6l1.8-0.9c-0.3,0.5,4.1,4.1,8.2,3.9 c-1.9-4.8-4.6-4.9-5.6-5.1c0.6-0.2,1.2-0.6,1.8-0.9c0.2,0.6,2.5,3.8,8,3c-1.1-2.2-3.3-3.7-5.8-4c0.8-0.4,1.4-0.6,1.9-1 c0.4,0.4,1.8,3.3,7.3,2.3c-0.8-1.9-2.6-3.3-4.7-3.6l1.4-0.8c1.6,1.6,4,2.3,6.3,1.8c-0.9-1.7-2.7-2.8-4.7-2.7 c0.8-0.5,1.6-1.1,1.6-1.1c0.3,0.6,1.9,2.2,5.8,1.1c-0.9-1.5-2.7-2.3-4.4-2.1l1.6-1.2c1.2,1.5,3.4,1.9,5,0.8c-0.7-1.3-2.2-2-3.8-1.8 c0.4-0.4,0.8-0.7,1.1-1.1c-0.1,0.4,2.3,1.6,4.5,0c-0.9-0.9-2.1-1.3-3.4-1.2c0.3-0.3,0.3-0.3,0.6-0.7c1.2,0.8,2.8,0.7,3.8-0.4 c-0.9-0.6-2.2-0.8-3.2-0.4l0.7-1.1c0.5,0.3,1.1,0.5,1.7,0.3c0.6-0.1,1.1-0.4,1.4-0.9c-0.8-0.5-1.8-0.6-2.7-0.3 c0.1-0.2,0.3-0.4,0.3-0.7c3.9,0.5,2.5-3.9,1.7-6.4C48.9,90,29.5,74.6,5.8,88.2c-1.1,2.8-1.5,5.8-1.2,8.8c0,0.4,0.1,0.8,0.2,1.2 c0.1,1.3,0.4,2.6,0.9,3.8c0.5,1.3,1,2.2,1.6,3.5c0.3-0.2,0.7-0.5,1-0.8c-1.1-1.3-4.6-10.3-0.2-15.5c4.2,0,4.7,11.7,4,13 c0,0,2-1.3,2.7-1.8c-0.9-0.4-4.1-10.6,1.2-14.8c0,0,4.7,1.8,2.8,12.6c0.8-0.5,1.9-1,3-1.5c-0.6-1-3.8-8.8,1.3-12.8 c2.8,1.1,2.6,9.6,1.5,11.4c0.9-0.4,1.8-0.9,2.7-1.3c-1.6-0.7-1.5-8.7,1.3-10.8c3.1,2.8,2.3,7.6,1.5,9.7l2.3-1c-1.8-3.4-1-7.5,1-9.1 c1.5,0.9,1.8,3.7,1.2,8.2l1.7-0.7c-0.4-0.7-1.5-5.3,1.2-7.8c2.4,1.1,1.6,6.3,1.4,6.8c0,0,1.4-0.5,1.4-0.6c-0.5-1-0.8-4.8,1.4-6.6 c0.9,0.6,1.8,2.3,1,5.6c0.5-0.2,1.1-0.5,1.6-0.7c-0.8-0.8-0.2-4.1,0.9-5.5c1.3,1.1,1.9,2.8,1.5,4.4c0.3-0.2,0.8-0.4,1.3-0.7 c-0.4-0.7-0.6-3.8,0.7-4.6c1.3,0.9,1.2,3.2,1.1,3.7c0.4-0.2,1.5-0.8,1.4-0.8c-1-1.2-0.8-3,0.5-4c1.3,0.3,1.4,2.8,1.2,2.9 c0.5-0.3,1.4-0.9,1.8-1.2c-1.2-0.3-1.1-2.2-0.4-3.1c0.8,0.2,1.4,0.7,1.7,2.1c0.3-0.3,1.1-0.9,1.3-1.1c-0.5-0.2-0.9-0.7-1-1.2 c-0.1-0.5,0.1-1.1,0.5-1.5c0.8,0.2,1.4,0.9,1.5,1.8c0.3-0.3,0.5-0.7,0.8-1c-0.7-0.6-0.9-1.6-0.5-2.4c0.7,0,1.3,0.9,1.4,1.3l0.7-1 c-0.4-0.3-1.2-1.2-0.5-2c0.8,0,1.1,0.6,1.3,1.2c-8,15.5-40.4,18.1-57.2,36.7c0,0-1.8,1.8-1.8,2.7v6.3h0.3 C4.7,114.9,7.8,110.5,11.9,107"></path> <path class="st0" d="M70.2,71.9c0-1.7,1.4-3.2,3.2-3.3c0.9,0,1.8,0.3,2.4,0.9c0.6,0.6,1,1.4,1,2.3c0,1.7-1.4,3.2-3.2,3.2 C71.8,75,70.3,73.6,70.2,71.9z M73.6,74.6c1.6,0,2.9-1.3,2.9-2.8c0-0.7-0.3-1.5-0.9-2C75,69.3,74.3,69,73.5,69 c-1.6,0-2.8,1.3-2.8,2.8C70.7,73.4,72,74.6,73.6,74.6z"></path> <path class="st1" d="M73.2,71.2v-0.4h-1.7v0.4h0.6v2h0.4v-2H73.2z"></path> <path class="st1" d="M75.5,73.1v-2.3h-0.4l-0.7,1.3l-0.7-1.3h-0.4v2.3h0.4v-1.5l0.5,1h0.4l0.5-1v1.5H75.5z"></path> <path class="st2" d="M67.6,122.2h-2.3v7.2h-1.7v-7.2h-2.3v-1.5h6.4V122.2z"></path> <path class="st3" d="M69,126.7H73V126c0-0.8-0.2-1.6-0.7-2.2c-0.5-0.6-1.3-0.9-2.1-0.9c-0.8,0-1.5,0.3-2.1,0.8 c-0.6,0.7-0.9,1.5-0.8,2.4c0,2.2,1,3.3,3,3.3c0.9,0.1,1.9-0.3,2.5-1l-1-1c-0.4,0.4-0.9,0.6-1.5,0.6c-0.4,0-0.8-0.1-1.1-0.4 C69.1,127.5,68.9,127.1,69,126.7z M71.3,125c0.1,0.2,0.2,0.4,0.2,0.7H69c0-0.2,0-0.5,0.1-0.7c0.2-0.4,0.6-0.7,1.1-0.7 C70.7,124.3,71.1,124.5,71.3,125z"></path> <path class="st2" d="M82.9,122.2h-2.3v7.2h-1.7v-7.2h-2.3v-1.5h6.4V122.2z"></path> <path class="st3" d="M86.8,129.4h1.6v-4.2c0-1.5-1-2.3-2.8-2.3c-0.4,0-0.9,0-1.3,0.2c-0.4,0.2-0.7,0.4-1,0.7l1,1 c0.3-0.3,0.8-0.5,1.3-0.5c0.8,0,1.2,0.3,1.2,1v0.3h-1.5c-0.6,0-1.2,0.1-1.7,0.5c-0.4,0.3-0.6,0.8-0.6,1.3c0,0.5,0.2,1.1,0.5,1.4 c0.9,0.8,2.3,0.8,3.3,0V129.4z M86.7,126.7v0.3c0,0.2,0,0.5-0.1,0.7c-0.3,0.3-0.7,0.5-1.1,0.4c-0.6,0-0.9-0.2-0.9-0.7 s0.3-0.7,0.9-0.7H86.7z"></path> <path class="st2" d="M95.2,129.4h-1.6v-0.6c-0.4,0.4-1,0.7-1.6,0.7c-0.6,0-1.1-0.2-1.5-0.6c-0.5-0.5-0.7-1.1-0.7-1.8V123h1.7v3.9 c0,0.3,0.1,0.7,0.3,0.9c0.2,0.2,0.4,0.3,0.7,0.3c0.3,0,0.5-0.1,0.7-0.3c0.2-0.2,0.4-0.6,0.3-0.9V123h1.6V129.4z"></path> <path class="st2" d="M101.6,123.6l-1.2,1.2c-0.2-0.2-0.5-0.4-0.9-0.4c-0.2,0-0.5,0.1-0.7,0.2c-0.2,0.2-0.3,0.6-0.3,0.9v3.9h-1.6 V123h1.6v0.6c0.4-0.5,1-0.7,1.6-0.7C100.7,123,101.3,123.2,101.6,123.6"></path> <path class="st3" d="M105.7,129.4h1.6v-4.2c0-1.5-1-2.3-2.8-2.3c-0.4,0-0.9,0-1.3,0.2c-0.4,0.2-0.7,0.4-1,0.7l1,1 c0.3-0.3,0.8-0.5,1.2-0.5c0.8,0,1.2,0.3,1.2,1v0.3h-1.5c-0.6,0-1.2,0.1-1.6,0.5c-0.4,0.3-0.6,0.8-0.6,1.3c0,0.5,0.2,1.1,0.6,1.4 c0.9,0.8,2.3,0.8,3.2,0V129.4z M105.7,126.7v0.3h-0.1c0,0.2,0,0.5-0.1,0.7c-0.3,0.3-0.7,0.5-1.1,0.4c-0.6,0-0.9-0.2-0.9-0.7 s0.3-0.7,0.9-0.7H105.7z"></path> <path class="st3" d="M114.3,127.7c0-0.5,0-1,0-1.5v-0.1c0-0.5,0-1,0-1.5c-0.1-0.5-0.3-0.9-0.6-1.2c-0.9-0.8-2.3-0.8-3.2,0.1V123 h-1.6v8.8h1.6v-2.9c0.4,0.4,1,0.7,1.6,0.6c0.6,0,1.2-0.2,1.6-0.6C114,128.6,114.2,128.2,114.3,127.7z M112.5,124.9 c0.1,0.4,0.1,0.8,0.1,1.2l0,0.1c0,0.4,0,0.8-0.1,1.2c-0.1,0.4-0.5,0.7-1,0.6c-0.5,0-0.9-0.3-1-0.8c-0.2-0.8-0.2-1.6,0-2.4 c0.1-0.4,0.5-0.6,1-0.6C112,124.3,112.4,124.6,112.5,124.9z"></path> <path class="st3" d="M119.1,129.4h1.6l-0.2-4.2c0-1.5-1-2.3-2.8-2.3c-0.5,0-0.9,0-1.3,0.2c-0.4,0.2-0.7,0.4-1,0.7l1,1 c0.3-0.3,0.8-0.5,1.3-0.5c0.8,0,1.2,0.3,1.2,1v0.3h-1.4c-0.6,0-1.2,0.1-1.7,0.5c-0.4,0.3-0.6,0.8-0.6,1.3c0,0.5,0.2,1.1,0.5,1.4 c0.4,0.4,1,0.6,1.7,0.6c0.6,0,1.2-0.2,1.6-0.6V129.4z M118.9,126.7v0.3h0.1c0,0.2,0,0.5-0.1,0.7c-0.3,0.4-0.8,0.5-1.3,0.4 c-0.6,0-0.9-0.2-0.9-0.7s0.3-0.7,0.9-0.7H118.9z"></path> <path class="st2" d="M130.7,122.2h-2.3v7.2h-1.7v-7.2h-2.3v-1.5h6.4V122.2z"></path> <path class="st2" d="M136.2,129.4h-1.6v-0.6c-0.4,0.4-1,0.7-1.6,0.7c-0.6,0-1.1-0.2-1.5-0.6c-0.5-0.5-0.7-1.1-0.7-1.8V123h1.6v3.9 c0,0.3,0.1,0.7,0.3,0.9c0.2,0.2,0.4,0.3,0.7,0.3c0.3,0,0.5-0.1,0.7-0.3c0.2-0.2,0.4-0.6,0.3-0.9V123h1.6L136.2,129.4z"></path> <path class="st2" d="M143.2,129.4h-1.6v-3.9c0-0.3-0.1-0.7-0.3-0.9c-0.2-0.2-0.5-0.3-0.7-0.2c-0.3,0-0.5,0.1-0.7,0.2 c-0.2,0.2-0.3,0.6-0.3,0.9v3.9h-1.6v-8.8h1.6v2.9c0.4-0.4,1-0.7,1.6-0.7c0.6,0,1.2,0.2,1.6,0.7c0.4,0.5,0.6,1.1,0.5,1.7V129.4z"></path> <path class="st3" d="M149.8,127.7c0.1-0.5,0.2-1,0.2-1.5c0.1-0.9-0.2-1.8-0.8-2.5c-1.1-1-2.9-1-4,0c-0.6,0.7-0.8,1.6-0.8,2.5 c0,0.5,0,1,0.2,1.5c0.1,0.4,0.3,0.8,0.6,1c1.1,1,2.9,1,4,0C149.5,128.4,149.7,128.1,149.8,127.7z M148.3,126.2 c0.1-0.6-0.1-1.1-0.4-1.6c-0.4-0.4-1.1-0.4-1.5,0c-0.3,0.5-0.4,1-0.4,1.5c-0.1,0.5,0.1,1.1,0.4,1.6c0.4,0.4,1.1,0.4,1.5,0 C148.3,127.3,148.4,126.7,148.3,126.2z"></path> <path class="st2" d="M156.7,129.4h-1.6v-3.9c0-0.3-0.1-0.7-0.3-0.9c-0.2-0.2-0.5-0.3-0.7-0.3c-0.3,0-0.5,0.1-0.7,0.3 c-0.2,0.2-0.4,0.6-0.3,0.9v3.9h-1.6V123h1.6v0.6c0.4-0.4,1-0.7,1.6-0.7c0.6,0,1.1,0.2,1.5,0.6c0.5,0.5,0.7,1.1,0.7,1.8V129.4z"></path> <path class="st3" d="M163.4,127.7c0.1-0.5,0.2-1,0.1-1.5c0.1-0.9-0.2-1.8-0.7-2.5c-0.5-0.5-1.3-0.8-2-0.8c-0.7,0-1.5,0.3-2,0.8 c-0.6,0.7-0.8,1.6-0.7,2.5c0,0.5,0,1,0.1,1.5c0.1,0.4,0.3,0.7,0.6,1c1.1,1,2.9,1,4,0C163.1,128.4,163.3,128.1,163.4,127.7z M161.5,124.7c0.3,0.5,0.4,1,0.4,1.5l-0.1,0.1c0.1,0.5-0.1,1.1-0.4,1.6c-0.2,0.2-0.5,0.3-0.8,0.3c-0.3,0-0.5-0.2-0.7-0.4 c-0.3-0.5-0.5-1-0.4-1.6c-0.1-0.5,0.1-1.1,0.4-1.5c0.2-0.2,0.5-0.3,0.7-0.3C161,124.4,161.3,124.5,161.5,124.7z"></path> <rect x="131.8" y="121.1" class="st2" width="3.6" height="0.8"></rect> <path class="st4" d="M162.8,101.5h4.3c1.2,0.1,2.3-0.3,3.1-1.1c1-1.2,1.5-2.8,1.2-4.3v-0.9c0.2-1.5-0.2-3.1-1.2-4.2 c-0.8-0.8-2-1.2-3.1-1.1h-4.3V101.5z M166.9,99.4h-1.7V92h1.7c0.6,0,1.3,0.2,1.7,0.7c0.5,0.5,0.5,1.2,0.5,3c0,1.7-0.1,2.6-0.5,3.1 C168.2,99.1,167.5,99.4,166.9,99.4z"></path> <path d="M118,101.5h-7.9v-7.8c-0.1-1,0.1-2,0.4-2.9c0.4-0.7,1.2-1,1.9-0.9h5.5V92h-4.2c-0.3,0-0.6,0.1-0.9,0.3 c-0.2,0.3-0.3,0.7-0.3,1v1.3h4.6v2.1h-4.6v2.7h5.5V101.5z"></path> <path d="M80.7,89.8h-7.9v7.8c-0.1,1,0,2,0.4,2.9c0.4,0.7,1.2,1,1.9,0.9h5.5v-2.1h-4.2c-0.3,0-0.6-0.1-0.9-0.3 c-0.2-0.3-0.3-0.7-0.3-1v-1.3h4.6v-2.1h-4.6V92h5.5V89.8z"></path> <path d="M133.4,99.4h5.3v2.1H131V91.3c0.1-0.6-0.2-1.1-0.8-1.4h1.4c0.9,0,1.7,0.3,1.8,2.5V99.4z"></path> <path d="M70.3,101.5h-2.1l-4.6-7v7h-2.4V89.8h2.1l4.6,6.9v-6.9h2.4V101.5z"></path> <path d="M158,95.1v-3.9c0-0.5-0.2-1-0.7-1.2h1.4c1.1,0,1.7,0.8,1.7,2.4v9.2h-2.1l-4.6-7v7h-2.4V90h2.1l4.6,6.9L158,95.1z"></path> <path class="st4" d="M144.7,89.8c0.7,0,1.3,0.5,1.4,1.1l3.9,10.5h-2.5l-0.7-2h-4.1l-0.7,2h-2.5l4.3-11.6H144.7z M144.8,93.5l-1.4,4 h2.7L144.8,93.5z"></path> <path class="st4" d="M124.4,89.8c0.7,0,1.3,0.5,1.4,1.1l3.9,10.5h-2.5l-0.7-2h-4.1l-0.7,2h-2.5l4.3-11.6H124.4z M124.6,93.5l-1.4,4 h2.8L124.6,93.5z"></path> <path d="M86.5,97l2.1-7h1.8l2.1,7l1.8-7h2.5l-3.2,11.6h-2.1l-2.1-6.9l-2.1,6.9h-2l-2.7-10.1c-0.3-1-0.6-1.3-1.2-1.5H83 c1-0.1,1.9,0.6,2.1,1.6L86.5,97z"></path> <path d="M107.6,92.9c0.4-0.7,0.7-1.6,0.8-2.4v-0.6h-7.7V92h4.8l-4.9,7.6v1.9h7.8v-2.1h-5L107.6,92.9z"></path> <path class="st3" d="M81.9,106.7c0.6,0,1,0.4,1.1,0.9l3.1,8.4h-1.9l-0.6-1.6h-3.3l-0.6,1.6h-2l3.5-9.3H81.9z M82,109.6l-1.1,3.2 h2.2L82,109.6z"></path> <path class="st3" d="M87.4,116h3.4v0.1c0.9,0,1.8-0.3,2.5-0.9c0.8-1,1.2-2.3,1-3.5V111c0.2-1.2-0.2-2.4-1-3.4 c-0.7-0.6-1.6-0.9-2.5-0.9h-3.4V116z M90.7,114.3h-1.3v-5.9h1.3c0.5,0,1,0.2,1.3,0.6c0.4,0.4,0.4,1,0.4,2.4c0,1.4-0.1,2-0.4,2.4 C91.7,114.2,91.2,114.4,90.7,114.3z"></path> <path class="st3" d="M163.1,116h1.9l-0.1-3.5h1.8c1.7,0,3-1.3,3-2.9c0-1.6-1.4-2.9-3-2.9h-3.6V116z M166.7,110.9h-1.7v-2.4h1.7 c0.4,0,0.7,0.1,1,0.3c0.3,0.2,0.4,0.6,0.4,0.9c0,0.3-0.1,0.7-0.4,0.9C167.4,110.8,167.1,110.9,166.7,110.9z"></path> <path class="st2" d="M142.1,116h-1.9v-7.6h-2.5v-1.7h6.8v1.7h-2.5V116z"></path> <path class="st2" d="M65.5,116h-1.9v-7.6h-2.5v-1.7H68v1.7h-2.5V116z"></path> <path class="st2" d="M134.4,110.9v-3.1c0-0.4-0.2-0.8-0.6-1h1.1c0.9,0,1.4,0.7,1.4,2v7.4h-1.7l-3.6-5.6v5.6H129v-9.4h1.7l3.6,5.6 L134.4,110.9z"></path> <path class="st2" d="M180,109.2v-1.3c0.1-0.5-0.2-0.9-0.6-1.1h1.1c0.8,0,1.4,0.2,1.4,2v7.3H180V109.2z"></path> <path class="st2" d="M197.5,116h-6.3v-6.2c-0.1-0.8,0-1.6,0.3-2.3c0.3-0.5,0.9-0.8,1.6-0.8h4.4v1.8h-3.4c-0.3,0-0.5,0.1-0.7,0.2 c-0.2,0.2-0.3,0.5-0.3,0.8v1h3.6v1.8h-3.6v2.1h4.4V116z"></path> <path class="st2" d="M152.2,116h-6.3v-6.2c-0.1-0.8,0-1.6,0.2-2.3c0.3-0.5,0.9-0.8,1.6-0.8h4.4v1.8h-3.3c-0.3,0-0.5,0.1-0.7,0.2 c-0.2,0.2-0.3,0.5-0.3,0.8v1h3.6v1.7h-3.6v2.2h4.4V116z"></path> <path class="st2" d="M127.2,116H121v-6.2c-0.1-0.8,0-1.6,0.3-2.3c0.3-0.5,0.9-0.8,1.6-0.8h4.4v1.8h-3.4c-0.3,0-0.5,0.1-0.7,0.2 c-0.2,0.2-0.3,0.5-0.3,0.8v1h3.7v1.7h-3.7v2.2h4.4V116z"></path> <path class="st2" d="M102.2,116h-6.3v-6.2c-0.1-0.8,0-1.6,0.3-2.3c0.3-0.5,0.9-0.8,1.6-0.8h4.4v1.8h-3.4c-0.3,0-0.5,0.1-0.7,0.2 c-0.2,0.2-0.3,0.5-0.3,0.8v1h3.6v1.7h-3.6v2.2h4.4V116z"></path> <path class="st3" d="M109.6,116.1c-2,0-3.2-1-3.2-2.8c0.1-1,0.7-2,1.6-2.5c-0.5-0.5-0.8-1.2-0.9-1.9c0-0.6,0.3-1.3,0.8-1.7 c0.5-0.4,1.2-0.6,1.8-0.5c0.6-0.1,1.3,0.2,1.7,0.6c0.5,0.4,0.7,1,0.7,1.7c0,0.7-0.4,1.3-1,1.7c0,0-0.3,0.3-0.6,0.4l1.4,1.7 c0.3-0.4,0.4-0.9,0.4-1.5h1.8c0,1.1-0.4,2.1-1.1,2.9l1.8,2h-2.4l-0.7-0.8C111.4,115.9,110.5,116.2,109.6,116.1L109.6,116.1z M109.2,112c-0.5,0.3-0.8,0.7-0.8,1.3c0,0.3,0.1,0.6,0.4,0.9c0.3,0.2,0.6,0.3,0.9,0.3c0.5,0,0.9-0.2,1.3-0.5L109.2,112z M109.3,108.4c0.1-0.1,0.3-0.2,0.5-0.2c0.2,0,0.4,0.1,0.5,0.2c0.1,0.1,0.2,0.3,0.2,0.5c0,0.2-0.2,0.5-0.5,0.7 c-0.1,0.1-0.2,0.2-0.3,0.2c-0.3-0.2-0.5-0.6-0.5-0.9C109.1,108.7,109.1,108.6,109.3,108.4z"></path> <path class="st3" d="M176.3,116h2.2l-2.1-4c1-0.4,1.7-1.4,1.7-2.4c0-0.8-0.3-1.6-0.9-2.1c-0.6-0.5-1.4-0.8-2.2-0.8h-3.7v9.3h1.9 v-3.7h1.3L176.3,116z M174.9,110.8h-1.7v-2.4h1.7c0.7,0,1.2,0.5,1.2,1.2C176.1,110.2,175.6,110.8,174.9,110.8z"></path> <path class="st3" d="M159.3,116h2.2l-2.1-4c1.1-0.4,1.7-1.4,1.7-2.4c0-0.8-0.3-1.6-0.9-2.1c-0.6-0.5-1.4-0.8-2.2-0.8h-3.7v9.3h1.9 v-3.7h1.3L159.3,116z M157.9,110.8h-1.7v-2.4h1.7c0.7,0,1.2,0.5,1.2,1.2C159.1,110.2,158.6,110.8,157.9,110.8z"></path> <path class="st3" d="M74.8,116H77l-2.2-4c1-0.4,1.7-1.4,1.7-2.4c0-0.8-0.3-1.6-0.9-2.1c-0.6-0.5-1.4-0.8-2.2-0.8h-3.6v9.3h1.8v-3.7 h1.3L74.8,116z M73.4,110.8h-1.7l-0.1-2.4h1.8c0.7,0,1.2,0.5,1.2,1.2C74.6,110.2,74.1,110.8,73.4,110.8z"></path> <path class="st2" d="M189.2,111.3c-0.5-0.4-1.1-0.7-1.8-0.7l-1.1-0.2c-0.3,0-0.6-0.1-0.9-0.4c-0.2-0.2-0.3-0.4-0.3-0.6 c0-0.7,0.5-1.1,1.4-1.1c0.5,0,1,0.1,1.4,0.3c0.3,0.2,0.7,0.2,1-0.1l0.7-0.7c-0.8-0.8-1.9-1.2-3.1-1.1c-0.8-0.1-1.7,0.2-2.3,0.7 c-0.6,0.5-1,1.3-1,2.1c0,0.7,0.2,1.4,0.7,1.8c0.5,0.4,1.1,0.7,1.8,0.8l1.1,0.2c0.3,0,0.6,0.1,0.8,0.3c0.2,0.2,0.3,0.5,0.3,0.7 c0,0.7-0.6,1.1-1.6,1.1c-0.8,0.1-1.6-0.2-2.2-0.8l-1.2,1.2c0.9,0.9,2.2,1.3,3.5,1.2c2.1,0,3.5-1.1,3.5-2.9 C190.1,112.5,189.8,111.8,189.2,111.3"></path> </g> </svg> 