<?xml version="1.0" encoding="UTF-8"?> <svg xmlns="http://www.w3.org/2000/svg" xmlns:xlink="http://www.w3.org/1999/xlink" version="1.1" id="Layer_1" x="0px" y="0px" viewBox="0 0 200 200" style="enable-background:new 0 0 200 200;" xml:space="preserve"> <style type="text/css"> .st0{fill:#55565A;} .st1{fill-rule:evenodd;clip-rule:evenodd;fill:#FFFFFF;} .st2{fill:#FFFFFF;} .st3{fill:#CBCACA;} .st4{fill-rule:evenodd;clip-rule:evenodd;fill:#CBCACA;} .st5{fill-rule:evenodd;clip-rule:evenodd;} </style> <g> <g> <g> <g> <path class="st0" d="M29,115.1c0,1.6-0.3,2.9-0.8,4c-0.5,1.2-1.3,2.1-2.4,2.9c-1.1,0.8-2.3,1.3-3.7,1.7 c-1.5,0.4-2.9,0.5-4.7,0.5H8.2v11.2H3v-29.8h14.8c1.6,0,3.1,0.3,4.5,0.5c1.3,0.4,2.5,0.9,3.6,1.7s1.7,1.7,2.4,2.9 C28.8,112.2,29,113.5,29,115.1z M23.7,115.1c0-1.6-0.5-2.9-1.6-3.9c-1.1-0.9-2.5-1.3-4.4-1.3H8.2v10.3h9.5c2,0,3.5-0.4,4.5-1.3 C23.2,118.1,23.7,116.7,23.7,115.1z"></path> <path class="st0" d="M46.5,117.9c-0.5-0.3-1.2-0.4-1.7-0.5c-0.7-0.1-1.3-0.3-2.3-0.3c-1.6,0-2.9,0.5-3.9,1.5 c-0.9,0.9-1.3,2.4-1.3,4.3v12.8h-5.2v-22.4h5.2v2.1c0.7-0.8,1.5-1.3,2.5-1.9c1.1-0.5,2.3-0.8,3.6-0.8c1.1,0,2,0.1,2.7,0.3 s1.3,0.4,1.9,0.7L46.5,117.9z"></path> <path class="st0" d="M71.3,124.3c0,1.9-0.3,3.5-0.9,4.9c-0.7,1.5-1.5,2.7-2.5,3.7c-1.1,1.1-2.3,1.7-3.7,2.3 c-1.5,0.5-3.1,0.8-4.7,0.8c-1.7,0-3.2-0.3-4.7-0.8c-1.5-0.5-2.7-1.3-3.7-2.4s-1.9-2.3-2.4-3.7c-0.5-1.5-0.9-3.1-0.9-4.8 c0-1.9,0.3-3.5,0.9-4.9c0.7-1.5,1.5-2.7,2.5-3.7c1.1-1.1,2.3-1.7,3.7-2.3c1.5-0.5,2.9-0.8,4.7-0.8s3.2,0.3,4.7,0.8 c1.5,0.5,2.7,1.3,3.7,2.3s1.9,2.3,2.5,3.6C70.8,121,71.3,122.6,71.3,124.3z M65.9,124.5c0-2.3-0.5-4.1-1.7-5.5 c-1.2-1.3-2.8-2-4.9-2c-2,0-3.5,0.7-4.7,2c-1.1,1.3-1.7,3.2-1.7,5.3c0,2.5,0.7,4.4,1.9,5.7c1.2,1.3,2.8,2,4.8,2 c0.9,0,1.9-0.1,2.7-0.5c0.8-0.4,1.5-0.9,2-1.6c0.5-0.7,1.1-1.5,1.3-2.4C65.8,126.5,65.9,125.5,65.9,124.5z"></path> </g> <g> <path class="st0" d="M149.7,54.8c3.6,1.2,7.1,2.7,10.3,4.5l3.6-4l2.7,7.9c3.2,2.1,6.3,4.7,9.3,7.5l-8.1-0.5l0.8,12.7l-6.7-12.4 l-10.8,1.1l6.4-7.7C155.1,60.4,152.6,57.3,149.7,54.8"></path> <path class="st0" d="M183.2,93.8l-5.1,1.2l-4.1-6.7c0.4,2.7,0.4,5.2,0.4,7.7l-5.7,2l5.6,3.2l-0.8,7.7l4.3-5.6l4.7,3.9l-2.5-7.6 L183.2,93.8z"></path> <polygon class="st0" points="182.6,80.1 179.3,81.1 183.6,82.9 185.2,87.9 185.8,84.9 188.7,87.2 186.4,82.3 187.2,78.9 184.2,79.6 180.6,76 "></polygon> <path class="st0" d="M194.5,110.9l3.5-4.7l-3.6-2.1c-0.3-4.5-0.9-8.4-2.1-11.4c0.1,3.3-0.9,10.2-0.9,10.2 c-1.7-0.9-3.9-1.5-6.3-1.7c2,2,3.6,4.7,4.7,7.9c-1.1,3.9-2.4,6.9-4,9.2l5.9-4.1c0,0,1.5,4.8,1.6,7.6 C194.1,118.6,194.5,115,194.5,110.9"></path> <path class="st0" d="M187.3,128.6c-0.7,1.1-1.9,2-3.6,3.1c1.3-0.3,2.3-0.3,2.9-0.1c-0.3,1.6-0.7,3.2-1.2,4.5l2.8-4.7l2.4-0.4 l-0.8-3.1l2.3-4.9c-0.8,1.3-1.7,2.4-2.8,3.5l-1.5-2.5L187.3,128.6z"></path> <path class="st0" d="M160.5,87.1l2,4.9l1.1-3.1c1.7,0.9,3.2,2,4.5,3.1l-4-4.8l0.5-2.5h-2.9l-4.7-4l2.5,4l-3.9,0.1L160.5,87.1z"></path> <path class="st0" d="M91,136.2c-9.3,0-15.2-6.4-15.2-15.5c0-9.1,5.9-15.5,15.2-15.5c5.9,0,9.8,2,12.3,5.6l-4.8,2.5 c-1.9-2.4-3.7-3.6-7.5-3.6c-6.3,0-9.6,4.3-9.6,11c0,6.7,3.3,11,9.6,11c3.7,0,6-1.3,7.9-3.7l4.4,2.5 C100.8,134.2,96.5,136.2,91,136.2"></path> <path class="st0" d="M123.2,135.7v-12.8c0-4.5-2-6.1-5.6-6.1s-5.6,2.1-5.6,5.7v13.2h-5.3v-29l5.3-2.3v11c1.3-1.6,4-2.7,6.8-2.7 c6.3,0,9.6,3.5,9.6,10.2v13h-5.2V135.7z"></path> <polygon class="st0" points="142.4,135.7 142.4,106.7 147.6,104.4 147.6,135.7 "></polygon> <polygon class="st0" points="132.8,113.3 132.8,111.1 138.2,108.7 138.2,113.3 "></polygon> <path class="st0" d="M174,126.1h-17.8c0.5,4.3,3.5,6.1,6.8,6.1c2.3,0,4-0.7,5.9-1.9l3.2,2.8c-2.4,1.9-5.2,2.9-9.3,2.9 c-6.3,0-11.6-4.3-11.6-11.8c0-7.6,4.8-11.8,11.8-11.8c7.6,0,11.4,5.2,11.4,11.4C174.1,124.9,174,125.5,174,126.1 M162.3,116.7 c-3.6,0-5.7,2-6.1,5.6h12.6C168.5,119.3,166.7,116.7,162.3,116.7"></path> <rect x="132.8" y="114.9" class="st0" width="5.3" height="20.8"></rect> </g> </g> </g> <g> <path class="st0" d="M4.9,148.1l-0.5-2.4c-0.1-0.4-0.1-0.9-0.3-1.5l0,0v3.9H3l0.1-5.1h2c0,0,0.4,2.3,0.7,4l0,0 c0.3-1.6,0.8-4,0.8-4h2l0.3,5.1H7.5l-0.1-3.9l0,0c-0.1,0.5-0.3,1.2-0.3,1.5l-0.5,2.4H4.9z"></path> <path class="st0" d="M12.2,148.1V143h1.2v5.1H12.2z"></path> <path class="st0" d="M19.4,148.1l-1.3-3.9l0,0l0.1,3.9h-1.1V143H19l1.3,4l0,0l-0.1-4h1.1v5.1H19.4z"></path> <path class="st0" d="M24.9,148.1V143h1.2v5.1H24.9z"></path> <path class="st0" d="M32.7,144.2c-0.3-0.1-0.7-0.3-1.2-0.3c-0.4,0-0.7,0.1-0.7,0.4c0,0.8,2.3,0.4,2.3,2.1c0,0.8-0.7,1.6-1.9,1.6 c-0.7,0-1.3-0.3-1.7-0.5l0.4-0.9c0.3,0.3,0.8,0.4,1.2,0.4c0.4,0,0.7-0.3,0.7-0.5c0-0.9-2.3-0.4-2.3-2.3c0-0.8,0.7-1.5,1.9-1.5 c0.5,0,1.1,0.1,1.5,0.4L32.7,144.2z"></path> <path class="st0" d="M38.4,144.1v4h-1.2v-4H36v-0.9h3.6v0.9H38.4z"></path> <path class="st0" d="M44.3,146.2h-0.4v1.9h-1.2V143h1.7c1.1,0,1.7,0.5,1.7,1.5c0,0.7-0.4,1.2-0.9,1.5l1.1,2h-1.3L44.3,146.2z M44.3,144h-0.4v1.3h0.4c0.5,0,0.8-0.3,0.8-0.8C45.1,144.1,44.8,144,44.3,144z"></path> <path class="st0" d="M51.7,146.4v1.7h-1.2v-1.7l-1.6-3.3h1.5l0.8,2.1l0,0l0.9-2.1h1.3L51.7,146.4z"></path> <path class="st0" d="M62.8,148.1c-1.7,0-2.3-1.3-2.3-2.7s0.4-2.5,2.3-2.5c1.9,0,2.3,1.2,2.3,2.5C65.1,146.9,64.7,148.1,62.8,148.1 z M62.8,144c-0.8,0-0.9,0.7-0.9,1.5c0,0.9,0.3,1.6,0.9,1.6c0.8,0,0.9-0.7,0.9-1.6C63.9,144.6,63.6,144,62.8,144z"></path> <path class="st0" d="M69.6,144.1v1.1h1.6l-0.1,1.1h-1.5v1.9h-1.2V143h3.2v0.9h-2V144.1z"></path> <path class="st0" d="M80.5,144.1v1.1h1.6l-0.1,1.1h-1.5v1.9h-1.2V143h3.2v0.9h-2V144.1z"></path> <path class="st0" d="M87.5,148.1c-1.7,0-2.3-1.3-2.3-2.7s0.4-2.5,2.3-2.5c1.9,0,2.3,1.2,2.3,2.5C89.8,146.9,89.3,148.1,87.5,148.1 z M87.5,144c-0.8,0-0.9,0.7-0.9,1.5c0,0.9,0.3,1.6,0.9,1.6c0.8,0,0.9-0.7,0.9-1.6C88.5,144.6,88.3,144,87.5,144z"></path> <path class="st0" d="M94.8,146.2h-0.4v1.9h-1.2V143h1.7c1.1,0,1.7,0.5,1.7,1.5c0,0.7-0.4,1.2-0.9,1.5l1.1,2h-1.3L94.8,146.2z M94.8,144h-0.4v1.3h0.4c0.5,0,0.8-0.3,0.8-0.8C95.4,144.1,95.2,144,94.8,144z"></path> <path class="st0" d="M100.1,148.1V143h3.2v0.9h-2v0.9h1.6l-0.1,1.1h-1.5v1.2h2v0.9H100.1z"></path> <path class="st0" d="M106.8,148.1V143h1.2v5.1H106.8z"></path> <path class="st0" d="M115.6,147.7c-0.7,0.3-1.2,0.5-1.9,0.5c-1.6,0-2.4-1.1-2.4-2.7s0.8-2.5,2.4-2.5c0.8,0,1.3,0.3,1.7,0.5 l-0.5,0.9c-0.3-0.1-0.7-0.3-1.2-0.3c-0.8,0-1.2,0.5-1.2,1.5c0,1.1,0.4,1.6,1.2,1.6c0.3,0,0.5,0,0.7-0.1v-0.7h-0.5l-0.1-0.8h1.7v2 H115.6z"></path> <path class="st0" d="M121.5,148.1l-1.3-3.9l0,0l0.1,3.9h-1.1V143h1.9l1.3,4l0,0l-0.1-4h1.1v5.1H121.5z"></path> <path class="st0" d="M133.6,147.1H132l-0.3,1.1h-1.2l1.3-5.1h1.9l1.3,5.1h-1.3L133.6,147.1z M132.3,146.1h1.2l-0.4-2h-0.3 L132.3,146.1z"></path> <path class="st0" d="M139.5,144.1v1.1h1.6l-0.1,1.1h-1.5v1.9h-1.2V143h3.2v0.9h-2V144.1z"></path> <path class="st0" d="M146,144.1v1.1h1.6l-0.1,1.1H146v1.9h-1.2V143h3.2v0.9h-2V144.1z"></path> <path class="st0" d="M153.5,147.1h-1.6l-0.3,1.1h-1.2l1.3-5.1h1.9l1.3,5.1h-1.3L153.5,147.1z M152.1,146.1h1.2l-0.4-2h-0.3 L152.1,146.1z"></path> <path class="st0" d="M158.3,148.1V143h1.2v5.1H158.3z"></path> <path class="st0" d="M164.6,146.2h-0.4v1.9H163V143h1.7c1.1,0,1.7,0.5,1.7,1.5c0,0.7-0.4,1.2-0.9,1.5l1.1,2h-1.3L164.6,146.2z M164.6,144h-0.4v1.3h0.4c0.5,0,0.8-0.3,0.8-0.8C165.4,144.1,165.1,144,164.6,144z"></path> <path class="st0" d="M172.9,144.2c-0.3-0.1-0.7-0.3-1.2-0.3c-0.4,0-0.7,0.1-0.7,0.4c0,0.8,2.3,0.4,2.3,2.1c0,0.8-0.7,1.6-1.9,1.6 c-0.7,0-1.3-0.3-1.7-0.5l0.4-0.9c0.3,0.3,0.8,0.4,1.2,0.4s0.7-0.3,0.7-0.5c0-0.9-2.3-0.4-2.3-2.3c0-0.8,0.7-1.5,1.9-1.5 c0.5,0,1.1,0.1,1.5,0.4L172.9,144.2z"></path> </g> </g> </svg> 