<?xml version="1.0" encoding="UTF-8"?> <svg xmlns="http://www.w3.org/2000/svg" xmlns:xlink="http://www.w3.org/1999/xlink" version="1.1" id="Layer_1" x="0px" y="0px" viewBox="0 0 200 200" style="enable-background:new 0 0 200 200;" xml:space="preserve"> <style type="text/css"> .st0{fill:#55565A;} .st1{fill-rule:evenodd;clip-rule:evenodd;fill:#FFFFFF;} .st2{fill:#FFFFFF;} .st3{fill:#CBCACA;} .st4{fill-rule:evenodd;clip-rule:evenodd;fill:#CBCACA;} .st5{fill-rule:evenodd;clip-rule:evenodd;} .st6{fill-rule:evenodd;clip-rule:evenodd;fill:#EC1C24;} .st7{fill-rule:evenodd;clip-rule:evenodd;fill:#231F20;} </style> <g> <path class="st6" d="M23.7,59.1c-11.3,9.7-3.9,27.6,6.1,40.8c10.6,14.1,30.1,32,57.4,41.1c-10.1,0-20.2,0-30.3,0 c-16.4-14.6-25.4-25.5-32.7-36.2C9,82.8,10.6,66.9,23.7,59.1L23.7,59.1z"></path> <path class="st6" d="M12.9,65.9c-12.6,16-14.2,34.7-2.6,56.7c6.3,0,12.7,0,19,0C11.8,102.9,4.7,83.9,12.9,65.9L12.9,65.9z"></path> <path class="st7" d="M113.3,96.7c-1.9,0-3-0.7-3.9-1.7c-0.7-0.7-1.6-2.8-1.6-4.1v-2.3c0-3.9,1.4-7.4,2.9-9.9c1.4-2.2,4-5.4,7.4-5.4 h1.5c1,0,2.4,0.8,2.9,1.3c1,1,0.9,1.8,1.5,2.7l0.2,2.2v1.6c0,3.5-1.7,7.8-3.1,10.1C119.6,93.7,117.2,96.7,113.3,96.7L113.3,96.7z M110.1,75.1l-3,2.9c0,0.2-1.9,2.9-2.3,3.8c-0.5,1.1-1.1,3.4-1.1,4.9l-0.1,1l0.4,2.6c0.4,0.6,0.6,2.1,1.1,2.8 c0.6,0.8,1,1.6,1.7,2.2c1.1,1.1,3.2,2.6,5.4,2.6h1.8c3.7,0,8.6-3.6,10.5-5.7c1.1-1.3,2.4-3.3,3-5.1c0.2-0.8,0.7-2.3,0.7-3.3 c0-1.4-0.2-2.5-0.2-3.7l-0.2-0.3c0-1-1.2-3.2-1.7-3.7l-1.7-1.9c-1.6-1.1-3-2.1-5.8-2.1c-2,0-3.3,0.5-4.8,1 c-0.7,0.2-1.3,0.6-1.9,0.9C111.1,74.3,110.6,74.8,110.1,75.1L110.1,75.1z M64.5,96.5h-1.8c-1.8,0-3.9-1.3-3.9-3.2 c0-1.8,1-3.5,1-4.7c0.5-0.7,2.5-8,2.9-9.4c0.1-0.4,1.5-4.7,1.5-4.7c0.3-0.4,4.2-1,5.2-1c3.4,0,6.6,1.9,6.6,5.1v1.9 c0,2.7-2.4,8.3-3.6,10c-1.1,1.6-1.5,2.5-3,3.8C68.2,95.1,66.4,96.5,64.5,96.5L64.5,96.5z M45.1,108.9v0.7c0.1,0.1,0.3,0.2,0.3,0.2 c1,0,2.4-0.1,3.4-0.2c1.2-0.2,2.1-0.2,3.5-0.2c2.2,0,4.7,0.1,7.1,0.1c0.3-0.2,0.5-0.2,0.5-0.7v-0.1c0-1.2-5.1-0.1-5.1-2.7v-0.3 c0-1.4,1.3-3.8,1.3-4.9l1.5-5.1c0.1,0,1.8,1.2,2.2,1.4c0.5,0.3,2.1,0.8,2.9,0.8h1.4c4.1,0,9.3-3.5,11-5.8c1.4-1.9,2.2-2.8,3.3-5.2 c0.8-1.8,1.7-4.2,1.7-6.8V80c0-2.9-1.2-4.7-2.9-6c-1.3-1-4.6-2.2-7-2l-5.4,0.6c0.1-1.1,1.4-3.9,1.4-4.7v-0.2c0-0.3-0.2-0.3-0.3-0.5 H63c-0.8,1.1-0.8,1.6-1.3,3c-0.2,0.7-0.7,2.9-1,3.4c-0.3,0.6-5.8,2-5.8,3V77c0.4,0.1,0.2,0.2,0.5,0.2c1.1,0,3.6-1.6,4.6-1.7 l-5.5,18.4c-0.3,0.4-2.7,8.3-2.9,9.3c-0.2,1-1.2,3.6-1.9,4.1c-0.4,0.3-1.7,0.7-2.3,0.8C46.1,108.3,45.9,108.3,45.1,108.9 L45.1,108.9z M136.3,76.4c0.3-0.5,1.2-1.2,2-1.2c0.4,0,0.7,1.1,0.4,1.6c0,1.1-1.1,3.9-1.4,4.9c-0.5,1.7-0.9,3.2-1.4,4.8 c-0.4,1.3-2.9,8.9-2.9,9.7v0.3c0,0.4,0.2,0.7,0.5,0.7h2.2c1.1,0,1.3-2,1.7-3c0.4-0.9,0.9-2.6,1.3-3.4c0.6-1,1-2.1,1.6-3.2 c0.6-1,1.3-2.1,1.7-3c0.8-1.7,2.7-4.2,3.9-5.6c0.6-0.7,1.6-1.9,2.3-2.5c0.5-0.4,2.2-1.9,2.9-1.9h0.6c0.5,0,1.2,0.9,1.2,1.6v1.3 c0,1.2-1.4,3.9-1.4,5c-0.2,0.4-4.2,13.4-4.2,13.9v0.3c0,0.3,0.4,0.5,0.7,0.5h1.8c1.4,0,1.5-1.7,1.9-2.9c0.3-1.2,1-2.4,1.4-3.4 c0.6-1.6,2.3-5,3.2-6.4c1.3-2.1,2.4-3.7,3.9-5.7c0.7-0.9,1.5-1.7,2.3-2.5c0.4-0.4,2.3-1.8,2.9-1.8h1.3c0.4,0,1.1,0.7,1.1,1.2v1.1 c0,2-2.4,7-3,9.1c-0.7,2.7-2.7,6.2-2.7,9.5v0.6c0,1,0.8,1.8,1.8,1.8h0.7c2.4,0,7.7-5.4,8.4-7.1c0.2-0.2,0.6-1.1,0.6-1.5 c0-0.2-0.2-0.4-0.4-0.4c-0.7,0-0.7,0.9-1.3,1.3c-0.2,0.9-3.7,4.8-4.8,4.8h-0.4c-0.4,0-0.6-0.6-0.6-1v-0.1c0-0.9,3.5-10.2,4.1-11.6 c1.2-3,3.8-10.3-1.7-10.3c-2.6,0-4.8,1.9-6.4,3.1c-1.7,1.3-3,3.7-4.4,5.3l-3.3,5.6l1.8-5.7c0-1.1,0.5-2,0.5-3.3v-1.4 c0-0.6-0.6-2.1-0.9-2.5c-0.4-0.6-1.4-1.1-2.4-1.1c-4,0-8.4,6-10.2,8.6l-3.3,5.2l2.2-7.1l0.6-4c0.2-1.1-0.4-2.7-1.5-2.7 c-2,0-4.5,2.1-5.6,3.1c-0.8,0.7-3.8,3.9-3.8,5c0,0.3,0.3,0.4,0.4,0.4C132.8,80.5,135.4,77,136.3,76.4L136.3,76.4z M86.6,76.7 l1.8-1.5c0.1-0.1,0.2-0.2,0.4-0.2c0.6,0,0.7,0.4,0.7,1c0,1.8-2.1,8.5-2.8,10.3c-0.4,1.1-3,9.5-3,10.1v0.4c0,0.3,0.4,0.5,0.6,0.5H86 c1.4,0,1.6-1.3,1.9-2.5c0.3-1,0.8-2.4,1.2-3.3c1-2,1.9-4,3-6c1-1.9,5.8-10.2,7.8-10.2h0.3c0.1,0.4,0.3,0.4,0.4,0.9 c0.1,0.5,0.1,0.5,0.3,1c0.3,0.7,0.8,0.9,1.7,0.9c1.3,0,2.7-1.7,2.6-3l-0.1-1.5c-0.6-0.9-1-1.7-2.5-1.7c-3.9,0-7,5.9-8.8,8.4 l-2.9,5.2l-0.1,0l1.9-6c0.2-1,1.1-3.2,0.9-4.3C93.4,73.7,93,72,91.3,72c-1.6,0-4.1,2.1-4.9,3c-0.6,0.6-3.3,3.9-3.3,4.7 c0,0.3,0.1,0.3,0.1,0.5h0.4C84,80.2,85.8,77.2,86.6,76.7L86.6,76.7z M179.3,99.9v0.2c0,0.3,0.2,0.3,0.3,0.4c0.9-0.1,5.6-2.5,6.6-3 c1.2-0.6,5.7-2.5,5.7-3.9v-0.3c0-0.6-0.6-1.3-1.2-1.3h-0.6c-0.8,0-4.9,3.1-5.6,3.7C184,96.3,179.3,99.5,179.3,99.9L179.3,99.9z M197.5,126v-0.6c-1.1-0.5-3.6,0.8-3.6-1.7v-16.9c0-0.8,0.4-2.7-0.4-2.7h-7.1c-0.2,0-0.3,0.1-0.3,0.3c0,1.3,1.9,0.6,2.9,1.1 c1.1,0.5,1.1,1.5,1.1,2.9v13.6c0,2.5-3.7,4.6-6.5,4.6h-0.5c-2.2,0-4.1-1-5.1-2.3c-0.9-1.2-1.2-4.1-1.2-6.2v-11.9 c0-0.7,0.2-2.1-0.6-2.1h-6.9c-0.2,0-0.3,0.1-0.3,0.2c0,0.6,0.3,0.7,0.6,1c0.9,0,1.6,0,2.2,0.2c0.8,0.3,0.8,0.8,1.2,1.4 c0,2.4,0,4.9,0,7.3c0,2.1-0.2,5.4,0,7.3c0.2,2.2,1,3.8,2.3,5c1.1,1.1,2.9,2.4,5,2.4h1.5c4,0,6.9-3.8,7.9-3.8v0.3h0.2v3.7h0.3 c0,0,2.4-1.4,2.8-1.6c0.7-0.4,2.8-0.8,3.3-1.1L197.5,126L197.5,126z M150.5,107.8v0.2c0,0.6,1.1,0.4,1.7,0.4c0.9,0.1,1,0.3,1.5,0.6 c0,0.8,0.3,1.3,0.3,2l0,12.9l-0.1,1.7c-0.5,0.8-0.6,1.1-1.7,1.3c-1,0.2-2.2-0.1-2.2,1c0,0.2,0.3,0.5,0.5,0.5l1-0.1l8.8,0.1h1.2 c0.2,0,0.4-0.2,0.4-0.4v-0.2c0-0.3-0.1-0.3-0.1-0.5c-2.1-0.5-3.9-0.1-3.9-2.9v-10.3c0-1.7,0.1-3.9,0.8-4.9c0.5-0.8,2-2.7,3-2.7h0.3 c1.2,0,1.8,2.1,3.1,2.1h0.6c0.9,0,2-0.8,2-1.7v-0.7c0-1.6-1.5-2.6-3.2-2.6c-3.6,0-5.6,4.3-6.6,4.4c-0.2-0.7-0.1-1.5-0.1-2.3 c0-0.6,0.2-2.2-0.3-2.2h-0.2c-0.7,0-1.1,0.8-1.5,1.2c-0.6,0.5-1,0.7-1.6,1.1c-0.6,0.4-1.1,0.7-1.8,1 C151.8,107,150.5,107.2,150.5,107.8L150.5,107.8z M127.5,109.2c0.5-0.9,1.8-2.8,2.8-3.1c0.8-0.7,2.8-1.6,4.2-1.6h1.1 c3.2,0,5.5,1.9,5.8,4.7c0.3,2.9-4.9,2.7-7.7,2.7H128l-1-0.1c-0.1-0.4-0.2-0.3-0.2-0.4C126.8,110.9,127.3,109.5,127.5,109.2 L127.5,109.2z M145.3,124.1c0.1-0.5,0.2-0.2,0.2-0.5v-0.2c0-0.2-0.2-0.4-0.4-0.4H145c-0.4,0-0.9,0.6-1.2,0.9 c-1.7,1.5-3.5,2.7-6.8,2.7h-0.3c-6.3,0-10.4-5.2-10.4-11.6c0-2,1.9-1.4,3.9-1.4c1.8,0,3.6,0,5.4,0c1.8,0,3.6,0,5.4,0 c1.1,0,4.8,0.4,4.8-0.6v-0.4c0-5.3-4.1-8.9-9.5-8.9h-0.6c-2.3,0-3.1,0.3-4.8,0.8c-1.5,0.4-2.5,1.3-3.6,2c-1.1,0.7-2.1,1.7-2.9,2.7 c-0.4,0.6-0.8,1.1-1.1,1.8c-0.2,0.4-0.7,1.9-0.8,2.1l-0.3,2.9v0.9c0,6.5,5.5,12.4,11.8,12.4h1.9c2.1,0,4.2-0.9,5.6-1.6 c0.5-0.3,1.6-1.1,2.1-1.5C143.9,125.5,145,124.3,145.3,124.1L145.3,124.1z M96.5,111.1c0-2.7,3.5-5.2,6.2-5.2h1.6 c2.1,0,4.2,1.3,5.3,2.3c0.8,0.7,1.1,1.1,1.8,2.1c0.6,0.9,0.8,1.9,1.2,2.5l0.6,3.9c0,0.9-0.7,4-1,4.6c-0.6,1.2-1.1,2.4-2,3.3 c-0.8,0.9-1.8,1.8-3,2.3c-1,0.4-2.8,1.2-4.3,1l-2-0.3c-1.1-0.7-2-0.5-3.2-1.8c-0.6-0.7-1.3-2.4-1.3-3.6V111.1L96.5,111.1z M89,140.9h11.3c0.1-0.1,0.2-0.4,0.2-0.5c0-1.1-1.4-0.7-2.3-1c-0.7-0.2-1.7-0.8-1.7-1.7V128c0-0.2,0.2-0.4,0.3-0.4 c1.6,0,3.8,1.4,6.5,1.4h1.1c6.9,0,13-5.6,13-12.5v-0.9c0-3.8-1.5-5.9-3.1-8.1c-1.1-1.4-5-4-7.3-4h-1.5c-2,0-3.7,0.6-5,1.2 c-0.8,0.4-3.7,2.3-3.9,2.4v-3.3c0-0.2-0.1-0.3-0.3-0.3h-0.5c-0.3,0-1,1-1.4,1.3c-0.6,0.4-1,0.8-1.6,1.2c-0.6,0.4-1.2,0.7-1.8,0.9 c-0.6,0.2-1.8,0.3-1.8,1v0.4c1.6,0.4,3-0.1,3.4,1.5c0.3,1.4,0.1,3.2,0.1,4.8c0,3.3,0,6.5,0,9.8c0,3.3,0,6.5,0,9.8 c0,5.2,0.7,4.7-3.9,5.7v0.6C88.7,140.8,88.8,140.7,89,140.9L89,140.9z"></path> </g> </svg> 