<?xml version="1.0" encoding="UTF-8"?> <svg xmlns="http://www.w3.org/2000/svg" xmlns:xlink="http://www.w3.org/1999/xlink" version="1.1" id="Layer_1" x="0px" y="0px" viewBox="0 0 200 200" style="enable-background:new 0 0 200 200;" xml:space="preserve"> <style type="text/css"> .st0{fill:#55565A;} .st1{fill-rule:evenodd;clip-rule:evenodd;fill:#FFFFFF;} .st2{fill:#FFFFFF;} .st3{fill:#CBCACA;} .st4{fill-rule:evenodd;clip-rule:evenodd;fill:#CBCACA;} .st5{fill-rule:evenodd;clip-rule:evenodd;} .st6{fill-rule:evenodd;clip-rule:evenodd;fill:#EC1C24;} .st7{fill-rule:evenodd;clip-rule:evenodd;fill:#231F20;} .st8{fill:#343741;} .st9{fill:#60646B;} .st10{clip-path:url(#SVGID_00000044154705926891016610000007448502650476060046_);fill:url(#SVGID_00000008830395284124553970000001208078633637365889_);} .st11{clip-path:url(#SVGID_00000044887021242827273000000004658018141435446937_);fill:url(#SVGID_00000087395266407769512860000000988556646084203677_);} .st12{clip-path:url(#SVGID_00000050648353220181140960000002212946078288130696_);fill:url(#SVGID_00000089573107948593202140000002935981821238641828_);} .st13{clip-path:url(#SVGID_00000010993872101283327350000012316829440817653654_);fill:url(#SVGID_00000181086084376675165670000005033349054886835895_);} </style> <g> <path d="M102.3,105.4c2.8,0,5.5,0,8.2,0c0.3,0,0.7,0.5,0.8,0.9c1.3,3.7,2.6,7.5,3.8,11.2c0.1,0.3,0.2,0.5,0.4,1.2 c0.4-1.1,0.7-1.9,1-2.8c1.1-3.2,2.2-6.4,3.3-9.7c0.1-0.4,0.5-0.9,0.8-0.9c2.6-0.1,5.3,0,8,0c0,7.5,0,14.8,0,22.3 c-2.1,0-4.1,0-6.2,0c0-4.5,0-8.9,0-13.3c-0.1,0-0.2-0.1-0.3-0.1c-0.2,0.4-0.3,0.8-0.5,1.2c-1.3,3.8-2.6,7.5-3.8,11.3 c-0.2,0.7-0.6,0.9-1.3,1c-3.3,0-3.4,0.1-4.5-3.1c-1.1-3.1-2.1-6.2-3.2-9.3c-0.1-0.4-0.3-0.8-0.7-1.1c0,4.4,0,8.8,0,13.3 c-2,0-3.9,0-5.9,0C102.3,120.3,102.3,113,102.3,105.4z"></path> <path d="M112.7,90.2c0-2,0-3.9,0-5.9c0-2,0-3.9,0-6c2.1,0,4.1,0,6.2,0c0,7.4,0,14.8,0,22.4c-1.9,0-3.7,0-5.6,0 c-0.3,0-0.7-0.5-0.9-0.9c-2.6-3.9-5.2-7.9-7.8-11.8c-0.3-0.4-0.6-0.9-1.2-1.3c0,4.6,0,9.2,0,13.9c-2.2,0-4.1,0-6.2,0 c0-7.4,0-14.8,0-22.4c2.4,0,4.7,0,7,0c0.4,0,0.8,0.6,1,1c2.2,3.4,4.4,6.8,6.7,10.2c0.2,0.3,0.4,0.5,0.6,0.8 C112.5,90.3,112.6,90.2,112.7,90.2z"></path> <path d="M95.1,119.9c1.4,2.5,2.9,5,4.5,7.9c-2.4,0-4.6,0-6.8,0c-0.2,0-0.5-0.4-0.6-0.7c-1.1-1.9-2.1-3.7-3.1-5.6 c-0.4-0.7-3.2-1.2-3.7-0.6c-0.2,0.2-0.2,0.7-0.2,1.1c0,1.9,0,3.8,0,5.9c-0.6,0-1,0-1.4,0c-1.6,0-3.3,0-5.1,0c0-0.5,0-0.9,0-1.3 c0-6.5,0-13.1,0-19.6c0-1.2,0.4-1.5,1.5-1.4c3.9,0.1,7.9-0.1,11.8,0.2c5.8,0.4,8.9,6.2,6.1,11.1C97.3,117.8,96.1,118.7,95.1,119.9z M85.2,115.7c2-0.1,3.8-0.1,5.7-0.4c1.3-0.2,1.7-1.3,1.6-2.5c0-1.2-0.5-2.1-1.7-2.2c-1.8-0.2-3.7-0.2-5.6-0.3 C85.2,112.2,85.2,113.8,85.2,115.7z"></path> <path d="M25.3,113.1c-2.3,0-4.2,0-6.1,0c-0.3,0-0.7-0.4-0.8-0.7c-0.6-1.6-1.8-2.4-3.5-2.4c-1.8-0.1-3.4,0.5-4.2,2.2 c-1.4,2.9-1.4,6,0,8.8c1.1,2.2,4.6,2.9,6.6,1.4c0.5-0.4,0.9-1.1,1.3-1.7c-0.1-0.1-0.2-0.2-0.2-0.3c-0.8,0-1.6,0-2.5,0 c0-1.6,0-3,0-4.5c3.1,0,6.1,0,9.2,0c0,3.9,0,7.7,0,11.7c-1.6,0-3.3,0-4.9,0c-0.1-0.5-0.2-1.1-0.4-1.8c-1.8,1.7-3.8,2.3-6.1,2.3 c-5.6-0.1-9.7-3.7-10.5-9.3c-0.5-3.8,0-7.4,2.6-10.4c4.3-4.9,13.8-4.7,17.4,0.4C24,110.1,24.5,111.5,25.3,113.1z"></path> <path d="M39.6,105c7,0,11.5,4.6,11.5,11.7c0,7.1-4.6,11.5-11.8,11.5c-6.9,0-11.3-4.7-11.3-11.9C28.1,109.5,32.7,105,39.6,105z M34.6,116.7c0.2,1,0.3,2.2,0.7,3.4c0.6,2.1,2.3,3.1,4.5,3.1c2.1-0.1,3.7-1.2,4.2-3.3c0.6-2.1,0.6-4.1,0.1-6.2 c-0.6-2.4-2.2-3.7-4.6-3.7c-2.3,0-3.9,1.3-4.5,3.7C34.8,114.6,34.8,115.6,34.6,116.7z"></path> <path d="M94.1,89.4c0,7.1-4.5,11.6-11.5,11.6c-7,0-11.6-4.5-11.6-11.6c0-7,4.6-11.6,11.5-11.6C89.4,77.8,94,82.4,94.1,89.4z M87.6,89.2c-0.3-1.2-0.5-2.6-1.1-3.9c-0.8-1.8-2.4-2.5-4.3-2.4c-1.9,0.1-3.2,1-3.9,2.7c-0.9,2.4-1,4.9-0.1,7.4 c0.7,2,2.2,3.1,4.3,3.1c2.1,0,3.7-1.1,4.4-3.1C87.2,91.8,87.3,90.6,87.6,89.2z"></path> <path d="M54,105.4c2.2,0,4.3,0,6.6,0c0,0.5,0,1,0,1.4c0,3.8,0,7.6,0,11.5c0,0.6,0,1.2,0.1,1.8c0.3,2,1.6,3.1,3.7,3.1 c2.1,0,3.4-0.9,3.7-3c0.2-0.9,0.2-1.8,0.2-2.8c0-3.9,0-7.9,0-11.9c2.2,0,4.3,0,6.6,0c0,0.5,0,1,0,1.4c0,3.8,0,7.6,0,11.3 c0,6.4-3.1,9.6-9.5,9.9c-1.5,0.1-3,0-4.4-0.3c-4.3-0.9-6.7-3.5-7-7.8C53.8,115.2,54,110.4,54,105.4z"></path> <path d="M150.8,127.7c-6,0-11.9,0-17.9,0c0-0.4-0.1-0.8-0.1-1.2c0-6.6,0-13.2,0-19.8c0-1.1,0.2-1.4,1.4-1.4c5,0.1,10.1,0.1,15.1,0 c1,0,1.4,0.2,1.3,1.3c-0.1,1.2,0,2.4,0,3.8c-3.8,0-7.5,0-11.2,0c0,1.3,0,2.4,0,3.6c3.3,0,6.4,0,9.7,0c0,1.7,0,3.2,0,5 c-1.6,0-3.2,0-4.7,0c-1.4,0-2.8,0-4.2,0c-0.6,0-0.9,0.2-0.9,0.9c0,0.9,0,1.8,0,2.9c3.9,0,7.7,0,11.5,0 C150.8,124.5,150.8,126,150.8,127.7z"></path> <path d="M2.5,93.7c2,0,3.8,0,5.7,0c0.3,0,0.7,0.3,0.8,0.6c0.7,2.5,5.4,2.8,6.9,1.3c0.4-0.4,0.7-1.2,0.5-1.6 c-0.2-0.5-0.8-1.1-1.4-1.2c-1.8-0.5-3.6-0.7-5.4-1.1c-0.6-0.1-1.1-0.2-1.7-0.4c-2.4-0.7-4.2-2.2-4.6-4.8c-0.4-2.9,0.4-5.4,3-6.8 c4.3-2.5,8.8-2.4,13.1-0.1c2,1.1,3,3.1,3.2,5.5c-2.1,0-4,0-6,0c-1-2.4-2.8-2.9-5.5-2.2c-0.9,0.2-1.5,0.9-1.5,1.8 c0,1,0.7,1.4,1.5,1.6c2.4,0.5,4.8,0.8,7.1,1.5c2.4,0.7,4.1,2.2,4.6,4.8c0.4,2.8-0.4,5.2-2.9,6.8c-0.7,0.5-1.5,0.9-2.4,1.1 c-4.1,1.1-8.1,1-11.8-1.2C3.8,98.1,2.8,96.2,2.5,93.7z"></path> <path d="M177,120.8c2,0,3.9,0,5.7,0c0.3,0,0.6,0.4,0.7,0.7c1.1,2.1,5.1,2.8,6.8,1.2c1.1-1,0.8-2.5-0.8-2.9c-1.7-0.4-3.4-0.7-5.1-1 c-0.6-0.1-1.2-0.2-1.7-0.3c-3.1-0.8-4.9-2.8-5.1-5.6c-0.2-3.2,1.2-5.7,4.5-7c3.6-1.4,7.2-1.4,10.8,0.2c2.5,1.1,3.8,3.1,4.1,6 c-2,0-3.9,0-5.8,0c-0.2,0-0.5-0.3-0.5-0.6c-0.6-2-4.4-2.5-5.9-1.2c-0.4,0.4-0.8,1.1-0.7,1.6c0.1,0.5,0.7,1.1,1.2,1.2 c1.9,0.5,3.9,0.8,5.9,1.2c2.5,0.5,4.7,1.3,5.7,3.9c1.3,3.4,0,7-3.3,8.5c-4.3,2-8.7,1.9-12.9-0.2C178.5,125.6,177.3,123.6,177,120.8 z"></path> <path d="M48.8,100.7c-2,0-3.9,0-5.8,0c-0.3,0-0.6-0.4-0.9-0.6c-0.1-0.1-0.1-0.2-0.1-0.3c-1.2-3.2-1.2-3.2-4.6-3.2c-1.5,0-3,0-4.5,0 c-0.7,0-1.1,0.2-1.4,0.9c-0.4,1.1-0.6,2.6-1.4,3.1c-0.8,0.5-2.3,0.2-3.4,0.2c-0.8,0-1.7,0-2.7,0c0.2-0.5,0.3-0.9,0.4-1.2 c2.7-6.7,5.3-13.5,8-20.2c0.3-0.8,0.7-1,1.5-1c1.8,0.1,3.7,0,5.5,0.1c0.4,0,1,0.4,1.1,0.7c2.8,7.1,5.6,14.2,8.4,21.3 C48.9,100.3,48.9,100.4,48.8,100.7z M39,91.5c-0.9-2.3-1.6-4.5-2.4-6.7c-0.1,0-0.2,0-0.3,0c-0.8,2.2-1.6,4.4-2.5,6.7 C35.6,91.5,37.2,91.5,39,91.5z"></path> <path d="M161.2,110.4c-2.6,0-5,0-7.4,0c0-1.7,0-3.3,0-4.9c7.2,0,14.3,0,21.5,0c0,1.6,0,3.2,0,4.9c-1.5,0-3,0-4.5,0 c-2.9,0-2.9,0-2.9,2.9c0,4.3,0,8.7,0,13c0,0.5,0,0.9,0,1.5c-2.2,0-4.3,0-6.6,0C161.2,122,161.2,116.3,161.2,110.4z"></path> <path d="M51.4,78.3c2.2,0,4.2,0,6.4,0c0,5.8,0,11.5,0,17.3c3.6,0,7.1,0,10.7,0c0,1.7,0,3.3,0,5c-5.7,0-11.3,0-17.1,0 C51.4,93.2,51.4,85.8,51.4,78.3z"></path> <path d="M80.3,76.8c0.5-1.7,0.9-3.1,1.3-4.5c0.1-0.3,0.5-0.5,0.8-0.6c1.8,0,3.7,0,5.8,0c-1.4,1.8-2.6,3.4-3.9,4.9 c-0.2,0.2-0.8,0.2-1.2,0.2C82.3,76.9,81.4,76.8,80.3,76.8z"></path> </g> </svg> 