<?xml version="1.0" encoding="UTF-8"?> <svg xmlns="http://www.w3.org/2000/svg" xmlns:xlink="http://www.w3.org/1999/xlink" version="1.1" id="Layer_1" x="0px" y="0px" viewBox="0 0 200 200" style="enable-background:new 0 0 200 200;" xml:space="preserve"> <style type="text/css"> .st0{fill:#D31B1F;} .st1{fill:#060606;} .st2{fill:#FEFEFE;} .st3{fill:#008971;} .st4{fill:#005C61;} .st5{fill:#076165;} .st6{fill:#005C62;} .st7{fill:#006564;} .st8{fill:#009476;} .st9{fill:#00A594;} .st10{fill:#00B2AB;} .st11{fill:#015C61;} .st12{fill:#015D62;} .st13{fill:#D6E302;} .st14{fill:#5C5E5A;} .st15{fill:#ECECEC;} </style> <g> <g> <path class="st13" d="M100.3,118c-6.4-6-13.4-5.2-16.5-2.1c0.4,0.5,1,0.2,1.4,0.2c5.4-1,10.1,0.7,14.5,3.9 c0.7,0.5,0.6,1.1,0.6,1.7c0,4,0,3.9-4,4.3c-7.9,0.7-15.6-0.3-22.3-4.6c-8.9-5.7-15.1-13.5-16.6-24.2c-0.7-4.7-0.1-9.4,1.4-13.9 c2.7-8.1,6.3-15.7,12.4-21.8c5.5-5.4,11.9-8.8,19.6-9.7c6.7-0.7,13,0.6,19,3.3c8.2,3.5,15.1,8.9,21.4,15.2c2.6,2.6,3.2,6,3.7,9.5 c1,7.4-1.4,14-5,20.2c-3,5.3-6.7,10-11,14.2c-0.4,0.4-0.7,0.9-1.5,0.5c-5.2-2.5-9.9-1.2-14.2,2.3c-0.3,0.3-0.6,0.5-0.9,0.8 c0,0-0.1,0-0.4,0c0-1.2,0-2.4,0-3.6c0.1-16.9,0.2-33.8,0.2-50.6c0-0.7,0-1.3,0-2c0-0.6-0.2-1.2-0.9-1.2c-0.7,0-0.9,0.6-0.9,1.2 c-0.1,0.6,0,1.1,0,1.7c0,17.7,0,35.5-0.1,53.2C100.3,116.9,100.3,117.3,100.3,118z M114.4,98.8c-0.9-1.7-2-2.3-3.7-1.6 c-3.6,1.5-7.5,7.4-7.3,11.2c0.1,2.1,1.6,3,3.3,1.9c2.5-1.5,4.8-3.4,6.5-5.9c4.4-6.5,7.1-13.9,9.4-21.4c0.4-1.2,0.9-2.4,0.7-3.8 C120.3,85.6,117.8,92.2,114.4,98.8z M87.5,98.8c-3.3-6.5-5.9-13.2-8.8-19.7c-0.5,0.5-0.3,0.8-0.2,1.1c1.9,7.5,4.7,14.7,8.4,21.5 c1.9,3.4,4.5,6.1,7.7,8.3c0.9,0.6,1.8,1.2,2.9,0.5c1.1-0.7,1.2-1.8,1-2.8c-0.7-4.4-2.9-7.9-6.8-10.2C89.9,96.3,89,96.7,87.5,98.8z M88.9,85.1c-3.1-5.7-5.5-11.7-8.3-17.5c-0.5,0.3-0.4,0.5-0.3,0.8c2.2,8.1,5.3,15.8,10.2,22.6c1.2,1.7,2.8,3.1,4.7,4.1 c0.8,0.4,1.6,0.5,2.3,0c0.8-0.5,1-1.4,0.8-2.3c-0.7-3.5-2.3-6.4-5.3-8.4C91.3,83.2,90.4,83.4,88.9,85.1z M113.1,85 c-1.8-1.7-2.8-1.8-4.8-0.2c-2.5,2-4,4.5-4.7,7.7c-0.2,1-0.2,2,0.7,2.6c0.9,0.7,1.9,0.3,2.9-0.2c1.7-1,3.2-2.4,4.4-4 c4.9-6.8,7.9-14.4,10.1-22.4c0.1-0.3,0.2-0.6-0.3-0.8C118.6,73.5,116.1,79.4,113.1,85z M117.6,62.3c-0.6,1.3-1.2,2.4-1.7,3.6 c-1.2,2.6-2.5,5.1-3.7,7.7c-0.2,0.3-0.3,1.2-1,0.4c-1-1.3-2.1-0.8-3.1-0.1c-2.5,1.9-3.9,4.4-4.2,7.5c-0.1,0.8,0.1,1.6,0.9,2.1 c0.8,0.5,1.6,0.1,2.2-0.4c1.8-1.3,3.3-3,4.5-4.9c2.8-4.4,4.7-9.2,6.2-14.2C117.8,63.6,118.2,63.1,117.6,62.3z M90.2,74.4 c-2.3-3.9-3.9-8-6-12c-0.5,0.7-0.2,1.2,0,1.6c1.4,4.6,3.2,9.1,5.7,13.2c1.3,2.2,2.9,4.2,5,5.7c0.7,0.5,1.4,0.9,2.2,0.4 c0.9-0.5,1.1-1.4,1-2.4c-0.5-2.8-1.7-5.2-3.9-7C92.5,72.7,91.8,72.8,90.2,74.4z M88.7,58c-0.2,0.1-0.3,0.1-0.5,0.2 c0.7,3.2,1.9,6.1,3.6,8.9c0.8,1.4,1.8,2.6,3,3.6c0.5,0.4,1.1,0.7,1.8,0.5c0.8-0.3,1-0.9,1-1.6c-0.1-2.7-1.1-5-3.3-6.6 c-0.6-0.4-1.3-0.7-1.9-0.1c-0.7,0.8-1,0.4-1.3-0.3C90.3,61.1,89.5,59.6,88.7,58z M113.2,57.9c-0.8,1.6-1.7,3.2-2.4,4.8 c-0.4,0.7-0.6,1.1-1.3,0.3c-0.6-0.6-1.3-0.3-2,0c-1.9,1.1-3.6,4.8-3.2,6.9c0.2,1.2,1.2,1.8,2.2,1.1c0.6-0.3,1-0.8,1.5-1.3 c2.6-2.8,4-6.2,5.2-9.7C113.4,59.4,113.7,58.8,113.2,57.9z M75.5,108.3c-1.6,0-3.1,1.4-3,2.9c0,1.2,1.8,2.9,3,2.8 c1.4-0.1,2.8-1.8,2.8-3.2C78.2,109.6,76.7,108.3,75.5,108.3z M69.9,91.8c0-1.2-1.4-2.5-2.6-2.5c-1.6,0-3.1,1.4-3,2.8 c0,1.2,1.6,2.8,2.7,2.9C68.4,95.1,69.9,93.4,69.9,91.8z M69,105.5c1.4,0,2.9-1.8,2.8-3.3c-0.1-1.2-1.4-2.4-2.6-2.4 c-1.6,0-3.1,1.3-3.1,2.8C66.1,103.8,67.7,105.5,69,105.5z M69.6,85.2c1.4,0.1,2.8-1.4,2.9-3c0.1-1.2-1.1-2.6-2.4-2.7 c-1.6-0.1-3.1,1.1-3.2,2.6C66.9,83.4,68.4,85.2,69.6,85.2z M76.8,73c0-1.3-1.2-2.5-2.6-2.5c-1.7,0-3,1.2-3,2.7 c0,1.3,1.5,2.9,2.8,2.8C75.5,76.1,76.8,74.6,76.8,73z"></path> <path class="st13" d="M54,97.9c-1.3-2.6-2-5.4-2.5-8.2c-0.8-4.4-0.8-8.8,0-13.2c0.7-3.6,2.5-6.8,4.8-9.6 c5.3-6.4,10.9-12.6,17.5-17.7c6.6-5.1,14.1-7.4,22.4-6.7c5.5,0.5,10.6,2.7,15.5,5.4c7.4,4.1,13.8,9.4,18,16.9 c0.2,0.4,0.4,0.7,0.6,1.1c0,0.1,0,0.2-0.1,0.5c-2.2-2.3-4.4-4.4-6.8-6.2c-8.5-6.3-17.9-10.4-28.5-11c-13.6-0.8-24.2,4.9-31.6,16.3 c-4.8,7.3-7.4,15.5-9.1,23.9C53.6,92.3,53.9,95.1,54,97.9z"></path> <path class="st13" d="M117,116c-4,4-8.2,7.5-13.7,8.7c-0.7,0.2-1,0.1-1.1-0.8c-0.4-2.6,0.5-4.3,3-5.5 C108.8,116.5,112.5,115.4,117,116z"></path> </g> <path class="st14" d="M97.3,157.6c-4,0-7-2.2-8.3-6c-2-6,1.5-12.7,7.4-14.4c4.1-1.1,8.4,1.6,9,5.7c0.3,1.8-0.1,2.2-1.9,2.4 c-3.3,0.3-6.6,0.6-9.9,0.6c-1.3,0-1.6,0.5-1.4,1.7c0.8,6.3,6.2,8.8,11.5,5.4c0.3-0.2,0.6-0.7,1.1-0.2c0.4,0.5,0.2,0.8-0.2,1.2 C102.7,156.1,100.4,157.8,97.3,157.6z M96.7,144.1C96.7,144.1,96.7,144,96.7,144.1c1.2-0.1,2.3-0.1,3.5-0.1c0.8,0,1.3-0.3,1.3-1.1 c0.1-2.6-2.6-4.8-5-4.1c-1.8,0.5-2.8,1.9-3.5,3.5c-0.7,1.8-0.7,1.8,1.1,1.8C94.9,144.1,95.8,144.1,96.7,144.1z"></path> <path class="st14" d="M19.7,148c0,1.2-0.1,2.8,0,4.3c0.1,2.1,0.7,2.5,2.6,2.2c0.4-0.1,0.7-0.2,0.9,0.3c0.2,0.5,0.1,0.7-0.3,1 c-1,0.5-1.9,1.2-2.9,1.7c-1.2,0.5-2.6,0-3.3-1.4c-0.5-1.1-1-0.9-1.8-0.4c-1.5,1.1-3.1,2.2-5.2,1.9c-2.1-0.3-4.3-2-4.6-4.1 c-0.5-2.8,0.3-4.5,2.9-5.5c2.2-0.9,4.4-1.7,6.6-2.4c1.2-0.4,1.5-1.2,1.3-2.3c-0.1-0.9-0.3-1.8-0.8-2.6c-0.8-1.2-1.9-1.7-3.3-1.6 c-1.3,0-2.2,0.8-2.7,2c-0.2,0.6-0.4,1.1-0.6,1.7c-0.2,0.7-0.6,1.1-1.4,1.1c-0.8,0-1.4-0.5-1.8-1.2c-0.4-0.7-0.2-1.3,0.4-1.8 c2.3-2,5-3.4,8-3.8c2.9-0.4,5.3,1.8,5.7,4.8C19.8,143.7,19.6,145.7,19.7,148z M16,150c0-0.9,0-1.8,0-2.8c0-0.5-0.2-0.8-0.7-0.5 c-1.6,0.8-3.2,1.5-4.8,2.3c-0.8,0.4-1.3,1.1-1.4,2c-0.3,2.1,1.1,3.8,3.1,3.9c2.2,0.2,3.9-1.3,3.9-3.4C16,151.1,16,150.5,16,150z"></path> <path class="st14" d="M175.3,147.5c0,1.6-0.1,3.3,0,4.9c0.1,1.9,0.8,2.4,2.6,2.1c0.4-0.1,0.8-0.1,1,0.4c0.2,0.5-0.1,0.7-0.5,1 c-0.9,0.5-1.7,1.1-2.7,1.5c-1.3,0.6-2.7,0.1-3.5-1.3c-0.5-1.1-0.9-0.9-1.8-0.4c-1.5,1-3,2.1-5,1.9c-2.3-0.2-4.4-1.9-4.9-4.3 c-0.5-2.4,0.6-4.3,3.1-5.3c2.2-0.9,4.4-1.7,6.6-2.4c1.1-0.4,1.4-1.1,1.3-2.2c-0.1-1-0.3-2-1-2.9c-1.6-2.2-4.7-1.9-5.8,0.5 c-0.2,0.5-0.4,1-0.6,1.6c-0.2,0.7-0.6,1.2-1.4,1.2c-0.9,0-1.6-0.5-1.9-1.3c-0.3-0.7-0.1-1.3,0.4-1.8c2.3-1.9,4.9-3.3,7.9-3.8 c3.2-0.4,5.7,2,5.9,5.6C175.4,144.2,175.3,145.8,175.3,147.5C175.3,147.5,175.3,147.5,175.3,147.5z M171.6,146.4 c-2,0.9-3.7,1.7-5.4,2.6c-1.3,0.7-1.8,1.9-1.6,3.3c0.3,1.4,1.5,2.5,2.9,2.7c1.7,0.2,4-1.1,4-2.4 C171.7,150.6,171.6,148.7,171.6,146.4z"></path> <path class="st15" d="M56.7,137c-1.9,0.5-3.8,1-5.7,1.5c-0.4,0.1-0.6,0.3-0.6,0.7c0,0.5,0.3,0.6,0.7,0.6c1.8,0.2,2.1,1.3,2.1,2.9 c-0.1,3.2,0,6.4,0,9.6c0,2.8,0,2.9-2.8,3.6c-0.5,0.1-0.7,0.2-0.7,0.8c0,0.5,0.4,0.5,0.8,0.5c2.8,0,5.6,0,8.4,0c0.4,0,0.7,0,0.7-0.5 c0-0.4-0.1-0.7-0.5-0.7c-2-0.2-2.2-1.7-2.2-3.2c0-2.8,0.2-5.6-0.1-8.4c-0.2-2.1,0.7-3.1,2.5-4c3.8-1.8,6.7-0.2,6.8,4 c0.1,2.8,0,5.5,0,8.3c0,2.6-0.1,2.6-2.6,3.3c-0.4,0.1-0.8,0.2-0.7,0.7c0,0.6,0.5,0.5,0.9,0.6c2.8,0,5.5,0,8.3,0 c0.4,0,0.8,0.1,0.9-0.5c0.1-0.7-0.3-0.8-0.8-0.8c-1.7-0.1-2.1-1.2-2.1-2.8c0-3,0.2-6-0.1-9c-0.2-2.1,0.7-3,2.4-3.8 c3.9-1.8,6.7-0.3,6.9,4c0.1,2.9,0,5.8,0,8.7c0,1.6-0.5,2.8-2.4,2.9c-0.5,0-0.9,0.1-0.9,0.8c0.1,0.8,0.6,0.5,1,0.5c2.7,0,5.3,0,8,0 c0.4,0,1,0.2,1.1-0.5c0.1-0.8-0.5-0.8-1-0.8c-1.6-0.2-2.1-1.2-2.1-2.6c0-3,0-5.9,0-8.9c0-0.9-0.1-1.7-0.2-2.6 c-0.8-4.2-4.8-6.1-8.7-4.1c-1.1,0.6-2.2,1.3-3.2,2c-0.9,0.6-1.3,0.8-2.1-0.3c-1.5-2.4-4.3-3.1-6.9-2c-0.7,0.3-1.4,0.7-2,1.1 c-0.9,0.5-2,1.7-2.5,1.4c-0.9-0.4-0.1-1.8-0.4-2.8C56.8,137.1,56.8,137.1,56.7,137z"></path> <path class="st15" d="M115.4,140.1c-0.3-0.8-0.2-1.5-0.2-2.2c0-0.7,0-1.1-0.9-0.8c-1.6,0.5-3.2,0.9-4.8,1.4 c-0.4,0.1-0.8,0.1-0.8,0.7c0,0.6,0.4,0.6,0.8,0.7c1.6,0.2,2,1.3,2,2.7c0,3.4,0,6.7,0,10.1c0,2.6,0,2.6-2.6,3.2 c-0.5,0.1-0.9,0.2-0.8,0.8c0.1,0.6,0.6,0.5,0.9,0.5c2.8,0,5.5,0,8.3,0c0.4,0,1,0.2,1-0.6c0.1-0.7-0.5-0.7-0.9-0.7 c-1.6-0.1-2.1-1-2.1-2.6c0-3,0-6,0-9c0-2.7,0.2-3.1,2.8-4.2c3.6-1.5,6.4,0.2,6.5,4.1c0.1,2.8,0,5.6,0,8.4c0,2.5-0.1,2.6-2.4,3.3 c-0.5,0.1-0.7,0.3-0.6,0.8c0.1,0.5,0.4,0.5,0.8,0.5c2.8,0,5.5,0,8.3,0c0.4,0,0.8,0,0.8-0.6c0-0.5-0.2-0.6-0.6-0.7 c-2.3-0.7-2.3-0.7-2.4-3.3c0-3.3,0.1-6.6-0.1-9.9c-0.3-5-4.7-7.3-9.2-4.8C117.8,138.5,116.7,139.3,115.4,140.1z"></path> <path class="st15" d="M31.8,139.6C31.8,139.6,31.8,139.6,31.8,139.6c0-4.4,0-8.9,0-13.3c0-1.1-0.3-1.2-1.3-0.9 c-1.6,0.5-3.3,0.8-4.9,1.1c-0.4,0.1-0.9,0-0.8,0.6c0,0.6,0.4,0.6,0.8,0.7c2.2,0.4,2.4,0.7,2.4,2.9c0,7.3,0,14.7,0,22 c0,2.4-0.2,2.6-2.5,3.2c-0.5,0.1-0.9,0.1-0.8,0.8c0.1,0.6,0.6,0.5,0.9,0.5c2.9,0,5.7,0,8.6,0c0.4,0,1,0.1,1-0.6 c0-0.6-0.4-0.6-0.8-0.7c-2.4-0.6-2.6-0.8-2.6-3.3C31.8,148.3,31.8,143.9,31.8,139.6z"></path> <path class="st15" d="M187.2,157.6c2.5,0,3.9-0.4,5.5-1.4c2.9-1.9,3.2-7,0-9c-1-0.6-2-1.2-3.1-1.6c-1.1-0.4-2.2-0.9-3.1-1.6 c-1-0.8-1.5-1.8-1.2-3.1c0.5-2.2,2.8-3.1,5-1.9c1.2,0.7,2,1.9,2.5,3.2c0.2,0.4,0.3,0.8,0.9,0.6c0.6-0.2,0.7-0.5,0.6-1 c-0.3-1-0.5-2.1-0.7-3.1c-0.1-0.5-0.3-0.9-0.9-1.1c-2.7-0.8-5.4-0.9-8,0.7c-3.4,2.2-3.6,6.5-0.4,8.9c1,0.8,2.2,1.3,3.3,1.8 c1,0.4,2,0.9,2.7,1.6c1.2,1.1,1.5,2.6,0.8,3.9c-0.7,1.4-2,1.9-3.4,1.7c-1.2-0.1-2.1-0.6-3-1.4c-1-0.9-1.6-2.1-2.1-3.3 c-0.2-0.5-0.4-0.7-0.9-0.6c-0.4,0.1-0.6,0.2-0.7,0.6c-0.7,3.8,1.1,6,5,6.2C186.5,157.6,186.8,157.6,187.2,157.6z"></path> <path class="st15" d="M135.7,146.7C135.7,146.7,135.7,146.7,135.7,146.7c0,2,0,4.1,0,6.1c0,0.3,0,0.6,0.1,0.9 c0.3,2.5,1.7,3.7,4.1,3.8c1.8,0.1,3.1-0.9,4.6-1.5c0.5-0.2,1.1-0.4,0.8-1.2c-0.4-0.8-0.9-0.2-1.3,0c-2.8,0.8-4.3-0.2-4.4-3 c-0.1-3.8,0-7.6-0.1-11.5c0-0.8,0.3-1.1,1.1-1.1c1.1,0,2.1,0,3.2,0c0.7,0,1.2-0.2,1.3-1c0.1-0.9-0.6-0.9-1.2-0.9 c-1.1,0-2.1,0-3.2,0c-0.9,0.1-1.1-0.3-1.1-1.2c0.1-1.4,0-2.9,0-4.3c0-0.5-0.1-0.9-0.8-0.7c-1,0.4-3,3.1-2.9,4.1 c0.1,1.3,0,2.2-1.7,2c-0.8-0.1-1.6,0.7-1.6,1.4c0,0.8,1,0.4,1.5,0.4c1.3-0.1,1.8,0.3,1.7,1.7C135.6,142.9,135.7,144.8,135.7,146.7z "></path> <path class="st15" d="M44.4,145.6C44.4,145.6,44.4,145.6,44.4,145.6c0-2.5,0-5.1,0-7.6c0-0.7-0.1-1.1-0.9-0.8 c-1.6,0.6-3.2,1-4.9,1.3c-0.4,0.1-0.9,0-0.9,0.6c0,0.7,0.4,0.7,0.9,0.8c1.7,0.2,2.1,1.2,2.1,2.8c-0.1,3.4,0,6.7,0,10.1 c0,2.4-0.2,2.6-2.5,3.2c-0.4,0.1-0.8,0.1-0.8,0.7c0,0.7,0.5,0.6,1,0.6c2.8,0,5.6,0,8.4,0c0.4,0,1,0.2,1-0.6c0-0.7-0.5-0.6-0.9-0.7 c-2.1-0.5-2.3-0.7-2.4-2.9C44.3,150.5,44.4,148.1,44.4,145.6z"></path> <path class="st15" d="M154.6,145.6C154.5,145.6,154.5,145.6,154.6,145.6c0-2.5,0-5.1,0-7.6c0-0.9-0.2-1-1.1-0.8 c-1.5,0.5-3.1,0.8-4.6,1.2c-0.4,0.1-1.1,0-1.1,0.8c0,0.7,0.6,0.6,1,0.7c1.5,0.2,2,1.1,2,2.6c0,3.6,0,7.1,0,10.7 c0,2-0.3,2.3-2.3,2.8c-0.5,0.1-1.1,0-1,0.8c0.1,0.8,0.8,0.5,1.2,0.5c2.7,0,5.3,0,8,0c0.4,0,1.1,0.3,1.2-0.5c0.1-0.8-0.6-0.7-1-0.8 c-1.8-0.1-2.3-1.2-2.3-2.8C154.6,150.6,154.6,148.1,154.6,145.6z"></path> <path class="st15" d="M44.6,130.6c0-1.3-1.1-2.3-2.4-2.2c-1.3,0-2.4,1-2.4,2.3c0,1.3,1.2,2.4,2.5,2.4 C43.6,133,44.6,131.9,44.6,130.6z"></path> <path class="st15" d="M152.5,128.4c-1.3,0-2.4,0.9-2.5,2.2c-0.1,1.3,1.1,2.5,2.4,2.4c1.3,0,2.3-1.1,2.4-2.3 C154.8,129.4,153.8,128.4,152.5,128.4z"></path> <path class="st14" d="M56.7,137c0,0.1,0.1,0.1,0.1,0.2c0.3,0.9-0.5,2.4,0.4,2.8c0.5,0.2,1.7-0.9,2.5-1.4c0.7-0.4,1.3-0.8,2-1.1 c2.6-1.1,5.4-0.4,6.9,2c0.7,1.2,1.2,1,2.1,0.3c1-0.8,2.1-1.4,3.2-2c3.8-2,7.8-0.1,8.7,4.1c0.2,0.8,0.2,1.7,0.2,2.6c0,3,0,5.9,0,8.9 c0,1.5,0.4,2.5,2.1,2.6c0.5,0,1.1,0,1,0.8c-0.1,0.7-0.7,0.5-1.1,0.5c-2.7,0-5.3,0-8,0c-0.4,0-1,0.2-1-0.5c-0.1-0.7,0.4-0.7,0.9-0.8 c1.8-0.1,2.4-1.2,2.4-2.9c0-2.9,0.1-5.8,0-8.7c-0.2-4.2-3-5.8-6.9-4c-1.6,0.8-2.6,1.6-2.4,3.8c0.3,3,0.1,6,0.1,9 c0,1.5,0.4,2.6,2.1,2.8c0.5,0,0.9,0.1,0.8,0.8c-0.1,0.6-0.5,0.5-0.9,0.5c-2.8,0-5.5,0-8.3,0c-0.4,0-0.8,0.1-0.9-0.6 c0-0.6,0.3-0.6,0.7-0.7c2.5-0.7,2.5-0.7,2.6-3.3c0-2.8,0-5.5,0-8.3c-0.1-4.2-2.9-5.9-6.8-4c-1.7,0.8-2.6,1.9-2.5,4 c0.2,2.8,0,5.6,0.1,8.4c0,1.6,0.1,3,2.2,3.2c0.5,0,0.5,0.3,0.5,0.7c0,0.5-0.4,0.5-0.7,0.5c-2.8,0-5.6,0-8.4,0c-0.4,0-0.7,0-0.8-0.5 c-0.1-0.5,0.2-0.6,0.7-0.8c2.8-0.7,2.8-0.8,2.8-3.6c0-3.2,0-6.4,0-9.6c0-1.6-0.3-2.7-2.1-2.9c-0.4,0-0.7-0.1-0.7-0.6 c0-0.4,0.2-0.6,0.6-0.7C52.9,138,54.8,137.5,56.7,137z"></path> <path class="st14" d="M115.4,140.1c1.3-0.8,2.4-1.6,3.6-2.3c4.4-2.4,8.8-0.1,9.2,4.8c0.2,3.3,0.1,6.6,0.1,9.9c0,2.5,0,2.5,2.4,3.3 c0.4,0.1,0.6,0.2,0.6,0.7c0,0.6-0.4,0.6-0.8,0.6c-2.8,0-5.5,0-8.3,0c-0.3,0-0.7,0-0.8-0.5c-0.1-0.5,0.2-0.7,0.6-0.8 c2.4-0.7,2.4-0.8,2.4-3.3c0-2.8,0.1-5.6,0-8.4c-0.1-3.9-2.9-5.6-6.5-4.1c-2.5,1.1-2.8,1.4-2.8,4.2c0,3,0,6,0,9 c0,1.5,0.5,2.4,2.1,2.6c0.4,0,1,0,0.9,0.7c-0.1,0.7-0.6,0.6-1,0.6c-2.8,0-5.5,0-8.3,0c-0.4,0-0.9,0.1-0.9-0.5 c-0.1-0.7,0.3-0.7,0.8-0.8c2.5-0.6,2.6-0.6,2.6-3.2c0-3.4,0-6.7,0-10.1c0-1.5-0.4-2.5-2-2.7c-0.4-0.1-0.8-0.1-0.8-0.7 c0-0.6,0.5-0.6,0.8-0.7c1.6-0.4,3.3-0.8,4.8-1.4c0.9-0.3,0.9,0.1,0.9,0.8C115.3,138.6,115.1,139.3,115.4,140.1z"></path> <path class="st14" d="M31.8,139.6c0,4.3,0,8.7,0,13c0,2.5,0.2,2.7,2.6,3.3c0.4,0.1,0.8,0.1,0.8,0.7c0,0.7-0.5,0.6-1,0.6 c-2.9,0-5.7,0-8.6,0c-0.4,0-0.8,0.1-0.9-0.5c-0.1-0.7,0.3-0.7,0.8-0.8c2.3-0.6,2.5-0.8,2.5-3.2c0-7.3,0-14.7,0-22 c0-2.2-0.2-2.5-2.4-2.9c-0.4-0.1-0.8-0.1-0.8-0.7c0-0.6,0.5-0.6,0.8-0.6c1.6-0.4,3.3-0.7,4.9-1.1c1-0.3,1.3-0.2,1.3,0.9 C31.7,130.8,31.8,135.2,31.8,139.6C31.8,139.6,31.8,139.6,31.8,139.6z"></path> <path class="st14" d="M187.2,157.6c-0.4,0-0.7,0-1.1,0c-3.9-0.1-5.6-2.4-5-6.2c0.1-0.5,0.3-0.6,0.7-0.6c0.5-0.1,0.7,0.2,0.9,0.6 c0.4,1.3,1.1,2.4,2.1,3.3c0.8,0.8,1.8,1.3,3,1.4c1.5,0.1,2.7-0.3,3.4-1.7c0.7-1.3,0.3-2.8-0.8-3.9c-0.8-0.7-1.8-1.2-2.7-1.6 c-1.2-0.5-2.3-1.1-3.3-1.8c-3.2-2.4-3.1-6.8,0.4-8.9c2.5-1.6,5.2-1.5,8-0.7c0.6,0.2,0.8,0.6,0.9,1.1c0.2,1,0.4,2.1,0.7,3.1 c0.1,0.5,0,0.9-0.6,1c-0.6,0.2-0.7-0.2-0.9-0.6c-0.5-1.3-1.3-2.5-2.5-3.2c-2.1-1.2-4.5-0.3-5,1.9c-0.3,1.3,0.2,2.3,1.2,3.1 c0.9,0.7,2,1.2,3.1,1.6c1.1,0.5,2.1,1,3.1,1.6c3.2,2,2.9,7,0,9C191.1,157.2,189.7,157.6,187.2,157.6z"></path> <path class="st14" d="M135.7,146.7c0-1.9-0.1-3.9,0-5.8c0.1-1.4-0.4-1.8-1.7-1.7c-0.5,0-1.5,0.4-1.5-0.4c0-0.7,0.8-1.5,1.6-1.4 c1.7,0.2,1.8-0.8,1.7-2c-0.1-1,1.9-3.8,2.9-4.1c0.7-0.2,0.8,0.2,0.8,0.7c0,1.4,0,2.9,0,4.3c0,0.8,0.2,1.2,1.1,1.2 c1.1-0.1,2.1,0,3.2,0c0.6,0,1.3,0,1.2,0.9c-0.1,0.8-0.6,1-1.3,1c-1.1,0-2.1,0-3.2,0c-0.8,0-1.1,0.3-1.1,1.1c0,3.8,0,7.6,0.1,11.5 c0.1,2.9,1.7,3.8,4.4,3c0.4-0.1,0.9-0.7,1.3,0c0.4,0.8-0.3,1-0.8,1.2c-1.5,0.7-2.8,1.6-4.6,1.5c-2.4-0.1-3.8-1.4-4.1-3.8 c0-0.3-0.1-0.6-0.1-0.9C135.7,150.8,135.7,148.8,135.7,146.7C135.7,146.7,135.7,146.7,135.7,146.7z"></path> <path class="st14" d="M44.4,145.6c0,2.5,0,5,0,7.5c0,2.1,0.3,2.4,2.4,2.9c0.4,0.1,0.9,0,0.9,0.7c0,0.8-0.6,0.6-1,0.6 c-2.8,0-5.6,0-8.4,0c-0.4,0-1,0.1-1-0.6c0-0.6,0.4-0.6,0.8-0.7c2.3-0.6,2.5-0.8,2.5-3.2c0-3.4,0-6.7,0-10.1c0-1.5-0.4-2.6-2.1-2.8 c-0.5-0.1-0.9-0.1-0.9-0.8c0-0.6,0.5-0.5,0.9-0.6c1.6-0.3,3.3-0.7,4.9-1.3c0.8-0.3,0.9,0.1,0.9,0.8C44.3,140.5,44.3,143,44.4,145.6 C44.4,145.6,44.4,145.6,44.4,145.6z"></path> <path class="st14" d="M154.6,145.6c0,2.5,0,5,0,7.5c0,1.6,0.5,2.7,2.3,2.8c0.4,0,1.1-0.1,1,0.8c-0.1,0.9-0.7,0.5-1.2,0.5 c-2.7,0-5.3,0-8,0c-0.4,0-1.1,0.3-1.2-0.5c-0.1-0.8,0.5-0.7,1-0.8c2-0.5,2.3-0.8,2.3-2.8c0-3.6,0-7.1,0-10.7c0-1.4-0.5-2.4-2-2.6 c-0.4-0.1-1,0-1-0.7c0-0.8,0.6-0.7,1.1-0.8c1.5-0.4,3.1-0.7,4.6-1.2c0.9-0.3,1.1-0.1,1.1,0.8C154.5,140.5,154.5,143,154.6,145.6 C154.5,145.6,154.5,145.6,154.6,145.6z"></path> <path class="st14" d="M44.6,130.6c0,1.3-1,2.3-2.3,2.4c-1.3,0.1-2.5-1.1-2.5-2.4c0-1.3,1.1-2.3,2.4-2.3 C43.5,128.3,44.6,129.3,44.6,130.6z"></path> <path class="st14" d="M152.5,128.4c1.3,0,2.3,1.1,2.3,2.3c0,1.3-1.1,2.3-2.4,2.3c-1.3,0-2.5-1.2-2.4-2.4 C150.1,129.3,151.2,128.3,152.5,128.4z"></path> </g> </svg> 