<?xml version="1.0" encoding="UTF-8"?> <svg xmlns="http://www.w3.org/2000/svg" xmlns:xlink="http://www.w3.org/1999/xlink" version="1.1" id="Layer_1" x="0px" y="0px" viewBox="0 0 200 200" style="enable-background:new 0 0 200 200;" xml:space="preserve"> <style type="text/css"> .st0{fill:#D31B1F;} .st1{fill:#060606;} .st2{fill:#FEFEFE;} </style> <g> <path class="st0" d="M100,5.6c13.9,0,27.9,0,41.8,0c1.3,0,1.7,0.4,1.6,1.7c0,27.8,0,55.7,0,83.5c0,1.4-0.4,1.6-1.7,1.6 c-27.8,0-55.7,0-83.5,0c-1.3,0-1.8-0.3-1.8-1.7c0-27.8,0-55.6,0-83.4c0-1.4,0.4-1.7,1.8-1.7C72.2,5.6,86.1,5.6,100,5.6z M96,50.3 c-0.1,0-0.3,0-0.5,0.1c-4.6,1.6-9,3.7-13.5,5.7c-0.9,0.4-1.1,1.3-0.5,2.1c1.5,2,2.9,4,4.7,5.8c0.7,0.7,1.4,1,2.4,0.5 c4.2-1.9,8.5-3.8,12.7-5.7c1.2-0.6,1.5-1.3,0.7-2.4c-1.2-1.7-2.4-3.3-3.6-4.9C97.8,50.7,97,50.3,96,50.3z M97.1,77.8 c1.5-0.4,2.8-1.1,4.2-1.7c3.1-1.4,6.2-2.8,9.3-4.2c0.9-0.4,1.8-1,1-2.2c-1.3-1.8-2.6-3.6-4-5.3c-0.7-0.9-1.8-1.3-2.9-0.8 c-4.4,1.8-8.7,3.6-13,5.5c-0.9,0.4-1.5,1.2-0.8,2.2c1.4,2,2.9,4,4.6,5.9C95.9,77.6,96.5,77.7,97.1,77.8z M78,51.5 c0.1,0,0.3,0,0.5-0.1c4.5-2,8.9-4,13.4-6c1-0.4,1.1-1.3,0.5-2.1c-1.2-1.6-2.3-3.3-3.5-4.8c-1.1-1.4-2.2-1.7-3.8-1 c-4.1,1.7-8.3,3.5-12.4,5.3c-1.2,0.5-1.5,1.5-0.7,2.5c1.4,1.8,2.8,3.6,4.2,5.3C76.5,51.1,77.1,51.5,78,51.5z M128.7,54.3 c-0.1-0.2-0.1-0.5-0.2-0.7c-1.3-2.4-2.8-4.6-4.4-6.7c-0.5-0.7-1.4-0.5-2.1,0c-0.4,0.3-0.7,0.7-1,1.1c-2.6,3-5.2,5.9-7.8,8.9 c-1.3,1.5-1.5,2.8-0.7,4.1c1.1,1.7,2.3,3.3,3.6,4.9c1,1.2,1.5,1.2,2.5,0.1c3.1-3.4,6.1-6.8,9.2-10.2 C128.3,55.4,128.6,54.9,128.7,54.3z M92.9,33.1c0,0.7,0.2,1.2,0.6,1.8c1.1,1.6,2.2,3.2,3.4,4.7c0.9,1.2,1.6,1.2,2.6,0.1 c3-3.3,6-6.6,8.9-9.9c1.1-1.3,1.2-2,0.3-3.4c-1.2-1.8-2.4-3.6-3.6-5.4c-0.8-1.1-1.7-1.2-2.6-0.1c-3,3.4-5.9,6.8-8.8,10.2 C93.3,31.6,93,32.3,92.9,33.1z M119.1,41.3c-0.1-0.3-0.1-0.7-0.3-1c-1.2-2.2-2.7-4.2-4.2-6.2c-0.7-0.9-1.6-0.8-2.3,0 c-3,3.4-6.1,6.9-9,10.4c-1.1,1.3-1.1,2.5,0,4c1,1.5,2.1,3,3.2,4.4c1,1.3,1.6,1.4,2.7,0.1c3.1-3.3,6.1-6.7,9.1-10.1 C118.7,42.4,119.1,42,119.1,41.3z"></path> <path class="st1" d="M186.2,144.4c0,1.7,0,3.5,0,5.2c0,1.8,1.1,2.6,2.8,2.2c0.8-0.2,1.7-0.4,2.5-0.7c0.9-0.3,1.7-0.1,2,0.8 c0.6,1.5,1.1,3,1.4,4.5c0.1,0.8,0,1.6-0.8,1.9c-3.8,1.7-7.8,2.7-12,1.5c-2.8-0.8-4.5-3.3-4.6-6.3c-0.1-4.7-0.2-9.3-0.3-14 c0-1.1-0.3-1.5-1.4-1.5c-1.8,0.1-2.4-0.6-2.4-2.3c0-1.2,0-2.5,0-3.7c0-1.5,0.5-1.9,2-2c1.8,0,1.8,0,1.8-1.9c0-2-0.1-4.1,0.1-6.1 c0.1-1.1,0.8-1.5,1.7-1.5c1.7-0.1,3.4-0.1,5-0.2c1.5,0,2,0.6,2.1,2.1c0,2.1,0.1,4.2,0,6.3c0,1,0.2,1.4,1.3,1.3c1.6-0.1,3.2,0,4.8,0 c1.1,0,1.7,0.5,1.6,1.7c0,1.5-0.1,2.9,0,4.4c0.1,1.4-0.6,1.9-1.9,2c-1.4,0.1-2.8,0.1-4.2,0c-1.2-0.1-1.7,0.2-1.6,1.5 C186.3,141.2,186.2,142.8,186.2,144.4z"></path> <path class="st1" d="M126.6,129.4c4-0.1,7.4,1.6,10.1,4.7c1.1,1.2,1,1.9-0.1,3c-0.8,0.8-1.7,1.6-2.6,2.5c-1.1,1-1.7,1.1-2.8,0.1 c-1.6-1.4-3.4-2.4-5.7-2c-3.1,0.5-5.8,3.5-6,6.8c-0.2,3.5,2,6.7,5.1,7.5c2.5,0.7,4.7,0.1,6.7-1.6c1.9-1.8,2.2-1.8,4.2,0 c0.4,0.3,0.7,0.7,1.1,1c2,1.7,2,2.1,0.5,4.1c-3.6,4.8-9.4,6-14.8,4.4c-11.4-3.3-15.2-16.5-7.2-25.4 C117.9,131,121.9,129.3,126.6,129.4z"></path> <path class="st1" d="M76.8,133.9c0-7.9,0-15.8,0-23.7c0-1.8,0.3-2.1,2.1-2.1c1.7,0,3.5,0,5.2,0c1.1,0,1.7,0.6,1.7,1.6 c0,0.4,0,0.8,0,1.2c0,15.3,0,30.5,0,45.8c0,0.5,0,0.9-0.1,1.4c-0.1,1-0.6,1.5-1.6,1.5c-2,0-4,0-6,0c-1.3,0-1.5-0.9-1.5-2 C76.8,149.7,76.8,141.8,76.8,133.9z"></path> <path class="st1" d="M82.3,185.6c0-2.2,0-4.4,0-6.7c0-0.6-0.1-1.4,0.8-1.5c0.9-0.1,2-0.5,2.5,0.6c0.4,0.9,0.8,0.7,1.4,0.3 c3.2-2,6.1-2,9.1,0.3c0.7,0.5,1.1,0.3,1.7-0.1c2.7-1.8,5.6-2.2,8.6-0.7c1.7,0.8,2.7,2.2,3,4c0.7,3.6,0.6,7.2,0.4,10.8 c-0.1,1.1-0.7,1.7-1.8,1.5c-0.8-0.1-1.5-0.2-2.3-0.3c-0.8-0.1-1-0.8-1-1.5c0-2.5,0-5,0-7.5c0-2.8-2.3-4.2-4.8-2.9 c-1,0.5-1.4,1.3-1.4,2.4c0,2.5,0,5.1,0,7.6c0,1.5-0.4,1.8-1.8,1.8c-3.6,0.1-3.1-0.4-3.1-3.2c0-2,0-4.1-0.1-6.1c-0.1-2-1.1-3-2.7-3 c-1.8,0-3.3,1.3-3.4,3.2c-0.1,2.4,0,4.8,0,7.2c0,1.6-1,2.4-2.6,2.1c-0.4-0.1-0.7-0.2-1.1-0.2c-1,0-1.4-0.6-1.4-1.6 C82.3,190.1,82.3,187.8,82.3,185.6z"></path> <path class="st1" d="M103.8,144.9c0,4.3,0,8.5,0,12.8c0,1.6-0.3,1.9-1.9,1.9c-1.7,0-3.5,0-5.2,0c-1.3,0-1.8-0.6-1.8-1.8 c0-8.6,0-17.2,0-25.7c0-1.5,0.4-1.9,2-1.9c1.6,0,3.3,0,4.9,0c1.7,0,2,0.3,2,2C103.8,136.4,103.8,140.6,103.8,144.9z"></path> <path class="st1" d="M149,188.6c0,1.2,0,2.4,0,3.5c0,1.2-0.7,2-1.9,2c-0.8,0-1.7-0.1-2.5-0.3c-0.7-0.2-0.7-0.8-0.7-1.4 c0-2.1,0-4.2,0-6.3c0-0.6,0-1.2-0.1-1.8c-0.3-2-1.3-2.9-3-2.9c-1.8,0.1-3.3,1.4-3.5,3.2c-0.2,2.4-0.1,4.9-0.1,7.3 c0,1.3-0.3,1.8-1.7,1.8c-0.5,0-1,0.2-1.5,0.2c-1.7-0.1-2.1-0.6-2-2.3c0.2-4.3,0.2-8.6,0-12.9c0-0.6,0-1.3,0.7-1.4 c0.9-0.1,2-0.5,2.6,0.5c0.5,0.9,0.8,0.9,1.6,0.3c3.4-2.3,7.8-1.8,10.3,1.1c1.6,1.8,1.7,4,1.7,6.1C149,186.5,149,187.6,149,188.6z"></path> <path class="st1" d="M154,186.4c0-0.8,0-1.5,0-2.3c0.1-1.2,0.1-2.1-1.4-2.6c-1.4-0.5-0.8-1.9-0.8-3c0-0.8,0.5-1.2,1.3-1.2 c0.7,0,0.9-0.5,0.9-1.1c0-0.8,0-1.6,0-2.4c0-0.3-0.1-0.7,0.1-0.9c0.8-1.7,2.4-0.7,3.6-0.9c0.9-0.1,1.3,0.4,1.3,1.3c0,1,0,2,0,3 c0,0.8,0.3,1.1,1.1,1c0.3,0,0.5,0,0.8,0c2.4,0,3.3,1.3,2.5,3.6c-0.3,0.9-1,0.8-1.6,0.9c-2.8,0.4-2.8,0.4-2.8,3.2c0,1,0,1.9,0,2.9 c0,1.1,0.6,1.6,1.8,1.5c2.1-0.3,3.4,0.9,3.3,3c0,0.2-0.2,0.5-0.3,0.7c-1.2,1.2-5.8,1.6-7.4,0.8c-1.5-0.8-2.2-2-2.3-3.6 C154,189,154.1,187.7,154,186.4C154.1,186.4,154,186.4,154,186.4z"></path> <path class="st1" d="M67.5,179.6c0,4.2,0,8.4,0,12.7c0,1.2-0.4,1.8-1.7,1.7c-0.4,0-0.8,0-1.2,0c-2.3,0-2.4-0.1-2.4-2.5 c0-8,0-16,0-24c0-2.2,0.2-2.4,2.3-2.4c3,0,3,0,3,2.9C67.5,171.9,67.5,175.7,67.5,179.6z"></path> <path class="st1" d="M77.5,185.7c0,2.1,0,4.3,0,6.4c0,1.5-0.3,1.8-1.8,1.8c-3.7,0-3.5,0.2-3.5-3.6c0-3.6,0-7.3,0-10.9 c0-1.8,0.3-2.1,2.2-2.1c3.2,0,3.2-0.3,3.1,3.1C77.5,182.1,77.5,183.9,77.5,185.7z"></path> <path class="st1" d="M99.3,119.9c-2.9,0-5.1-2.2-5-5.1c0-2.9,2.2-5.1,5-5.2c3,0,5.3,2.3,5.3,5.2 C104.5,117.7,102.3,119.9,99.3,119.9z"></path> <path class="st1" d="M77.7,168.9c0,1.6-1.3,2.9-3,2.9c-1.6,0-2.8-1.3-2.8-3.1c0-1.7,1.1-2.8,2.8-2.8 C76.6,165.9,77.8,167.1,77.7,168.9z"></path> <path class="st2" d="M96,50.3c1,0,1.8,0.4,2.4,1.2c1.2,1.6,2.5,3.2,3.6,4.9c0.8,1.1,0.5,1.8-0.7,2.4c-4.2,1.9-8.5,3.8-12.7,5.7 c-1,0.5-1.8,0.2-2.4-0.5c-1.7-1.8-3.2-3.8-4.7-5.8c-0.6-0.8-0.3-1.7,0.5-2.1c4.4-2,8.9-4.1,13.5-5.7C95.7,50.3,95.8,50.3,96,50.3z"></path> <path class="st2" d="M97.1,77.8c-0.6-0.1-1.2-0.3-1.6-0.7c-1.7-1.8-3.2-3.8-4.6-5.9c-0.7-1-0.1-1.8,0.8-2.2c4.3-1.9,8.7-3.7,13-5.5 c1.1-0.5,2.2-0.1,2.9,0.8c1.4,1.7,2.7,3.5,4,5.3c0.8,1.1,0,1.8-1,2.2c-3.1,1.4-6.2,2.8-9.3,4.2C99.9,76.7,98.6,77.5,97.1,77.8z"></path> <path class="st2" d="M78,51.5c-0.9,0-1.4-0.5-1.9-1c-1.4-1.7-2.9-3.5-4.2-5.3c-0.8-1.1-0.5-2,0.7-2.5c4.1-1.8,8.2-3.6,12.4-5.3 c1.6-0.7,2.7-0.3,3.8,1c1.2,1.6,2.4,3.2,3.5,4.8c0.6,0.9,0.5,1.7-0.5,2.1c-4.4,2-8.9,4-13.4,6C78.3,51.5,78.1,51.5,78,51.5z"></path> <path class="st2" d="M128.7,54.3c-0.1,0.7-0.4,1.2-0.8,1.6c-3.1,3.4-6.1,6.8-9.2,10.2c-1,1.1-1.5,1.1-2.5-0.1 c-1.3-1.6-2.5-3.2-3.6-4.9c-0.9-1.3-0.6-2.6,0.7-4.1c2.6-3,5.2-6,7.8-8.9c0.3-0.4,0.6-0.8,1-1.1c0.7-0.6,1.5-0.7,2.1,0 c1.6,2.1,3.2,4.3,4.4,6.7C128.6,53.8,128.6,54,128.7,54.3z"></path> <path class="st2" d="M92.9,33.1c0-0.8,0.4-1.5,0.9-2.1c2.9-3.4,5.9-6.8,8.8-10.2c0.9-1,1.8-1,2.6,0.1c1.3,1.8,2.5,3.6,3.6,5.4 c0.9,1.4,0.8,2.2-0.3,3.4c-3,3.3-5.9,6.6-8.9,9.9c-1,1.1-1.7,1.1-2.6-0.1c-1.2-1.5-2.3-3.2-3.4-4.7C93.2,34.3,92.9,33.7,92.9,33.1z "></path> <path class="st2" d="M119.1,41.3c0,0.7-0.4,1.1-0.8,1.6c-3,3.4-6.1,6.8-9.1,10.1c-1.1,1.2-1.7,1.2-2.7-0.1 c-1.1-1.4-2.2-2.9-3.2-4.4c-1-1.5-1.1-2.7,0-4c3-3.5,6-6.9,9-10.4c0.7-0.8,1.6-1,2.3,0c1.5,2,2.9,4,4.2,6.2 C118.9,40.6,119,41,119.1,41.3z"></path> <path class="st1" d="M35.1,133.9c0-7.8,0-15.6,0-23.4c0-2.1-0.3-2.4-2.3-2.4c-1.4,0-2.8,0-4.2,0c-2.3,0-2.6,0.3-2.6,2.7 c0,6.1,0,12.3,0,18.4c0,0.9,0,1.3-1.2,1c-4.6-1.3-9-1.3-13.2,1.6c-5.8,4-8.2,12.5-5.3,19.2c2.9,7,8.6,10.4,15.4,9.2 c2.4-0.4,4.4-1.6,6.2-3.2c0.4-0.3,0.7-0.9,1,0c0.9,2.5,1.6,2.9,4.1,2.7c1.8-0.2,2.1-0.5,2.1-2.3C35.1,149.6,35.1,141.7,35.1,133.9z M26.2,143.8c0,0.8,0,1.5,0,2.3c0,2.8-1.4,4.8-3.9,5.7c-2.5,0.9-4.8,0.3-6.6-1.8c-2.5-2.8-2.6-7-0.3-10c2-2.6,6.1-3.3,9.3-1.7 c1,0.5,1.5,1.3,1.5,2.4C26.2,141.7,26.2,142.8,26.2,143.8z"></path> <path class="st1" d="M70.5,142.5c-0.8-11.2-11.6-15.8-20.2-11.7c-8.5,4.1-10.6,14.4-6.4,22.3c4.1,7.8,16.2,10.2,23.7,3.4 c0.8-0.7,0.8-1.6,0.1-2.4c-0.8-1-1.7-2-2.6-3c-0.7-0.8-1.4-0.9-2.3-0.4c-1,0.6-2,1.2-3.2,1.5c-3.7,1.2-7.5-0.6-8.8-4.1 c-0.5-1.4-0.3-1.7,1.1-1.7c2.7,0,5.4,0,8,0c2.4,0,4.7,0,7.1,0c3.1,0,3.4-0.2,3.5-3.4C70.5,142.9,70.5,142.7,70.5,142.5z M60.5,141 c-0.7,0-1.5,0-2.2,0c-0.7,0-1.5,0-2.2,0c-1.4,0-2.7,0-4.1,0c-0.8,0-0.9-0.4-0.7-1c0.6-1.9,2.9-3.5,5-3.5c2.1,0,4.3,1.5,4.9,3.4 C61.6,140.5,61.5,141,60.5,141z"></path> <path class="st1" d="M167.3,156.9c0-3.9,0-7.9,0-11.8c0-2.5-0.3-5.1-0.4-7.6c-0.2-3.7-2.6-6.6-6.2-7.5c-4.9-1.2-9.7-0.5-14.5,0.7 c-0.8,0.2-1.3,0.8-1.2,1.7c0.2,1.2,0.3,2.3,0.5,3.5c0.3,1.9,0.7,2.2,2.6,1.9c2.5-0.4,4.9-0.9,7.4-0.9c2.2,0,3.3,1,3.6,3.1 c0.1,1,0,1.6-1.3,1.3c-3-0.7-6-0.6-9,0.4c-3.8,1.2-6.1,3.8-6.4,7.4c-0.5,4.3,0.7,8,4.7,10.1c4.1,2.1,8.1,1.5,11.9-0.8 c1.8-1.1,1.7-1.1,3.1,0.4c0.7,0.8,3.1,1.3,4.2,0.8C167.4,159,167.3,157.9,167.3,156.9z M158.8,150.6c-0.7,2.4-3.9,3.9-6,3 c-1.4-0.6-2.3-2-2.3-3.4c0-1.6,1-2.9,2.4-3.4c0.8-0.3,1.6-0.4,2.4-0.4c0.3,0,0.5,0,0.8,0C159,146.8,159.7,147.4,158.8,150.6z"></path> <path class="st1" d="M128.9,184.6c-0.3-5.8-5.3-8.6-9.9-7.5c-4,1-7.2,5.3-6.2,10.2c0.7,3.6,2.8,5.8,6.1,6.7 c2.6,0.8,5.2,0.4,7.5-1.4c1-0.8,1.1-2,0.3-3c-1-1.1-2.1-0.8-3.2-0.3c-2.2,0.8-4.5,0.2-5.3-1.6c-0.4-0.8-0.3-1.3,0.7-1.3 c1.5,0,2.9,0,4.4,0c1.3,0,2.5-0.1,3.8,0C128.5,186.6,129,186.1,128.9,184.6z M122.8,183.4c-0.7,0-1.4,0-2,0c0,0,0,0,0,0 c-0.4,0-0.8,0-1.2,0c-0.4,0-1,0.2-1.2-0.2c-0.2-0.5,0.2-1,0.6-1.4c1.3-1.4,3.6-1.1,4.4,0.6C123.7,183,123.7,183.4,122.8,183.4z"></path> <path class="st1" d="M57.8,187.9c0,0-0.1,0-0.1,0c0-1.9,0.1-3.8,0-5.7c-0.2-3.4-2.1-5.2-5.5-5.2c-1.6,0-3.3,0.1-4.9,0.4 c-2.3,0.4-2.6,1-1.9,3.3c0.3,0.9,0.8,1.3,1.8,1.1c1.2-0.2,2.4-0.3,3.6-0.5c0.5-0.1,1,0.1,1.4,0.3c0.6,0.3,0.8,0.9,0.7,1.5 c-0.1,0.6-0.7,0.4-1.1,0.4c-1,0-2,0-3,0c-2.4,0.2-4.2,1.3-4.9,3.6c-0.6,2.2-0.2,4.3,1.5,5.9c1.7,1.6,3.7,1.7,5.9,0.9 c1.4-0.5,2.7-1.4,4.4-0.3c1,0.7,2.1-0.1,2.1-1.5C57.8,190.7,57.8,189.3,57.8,187.9z M50.4,190.5c-1,0-2-0.9-2.1-1.9 c0-1.2,1.1-2.1,3.1-2.1c0.7,0,1.6,0.2,1.6,1.5C53,189.3,51.7,190.5,50.4,190.5z"></path> </g> </svg> 