<?xml version="1.0" encoding="UTF-8"?> <svg xmlns="http://www.w3.org/2000/svg" xmlns:xlink="http://www.w3.org/1999/xlink" version="1.1" id="Layer_1" x="0px" y="0px" viewBox="0 0 200 200" style="enable-background:new 0 0 200 200;" xml:space="preserve"> <style type="text/css"> .st0{fill:#00355F;} </style> <g> <polygon class="st0" points="80.9,83.7 61.4,116.6 67.4,116.6 86.9,83.7 "></polygon> <g> <path class="st0" d="M72.9,83.9v-0.2h-9v10.5v-1C65.2,87.7,68.4,84.5,72.9,83.9"></path> </g> <polygon class="st0" points="93.4,83.7 73.9,116.6 79.9,116.6 99.4,83.7 "></polygon> <g> <path class="st0" d="M88.3,116.4v0.2H100v-12.5l-0.2,1.2C98,112.2,94.2,115.8,88.3,116.4"></path> <path class="st0" d="M5.1,83.7H2.5v33h4c0.4,0,0.8,0,1.2,0h0.2v-33H7.7C6.9,83.7,5.9,83.7,5.1,83.7"></path> <path class="st0" d="M143.6,83.7h-3.8v33h5.4v-33h-0.6C144.4,83.7,144,83.7,143.6,83.7"></path> </g> <polygon class="st0" points="119.5,82.3 116.7,89.5 116.7,89.5 105.8,116.6 105.8,116.6 107.6,116.6 117.5,91.9 122.7,104.6 127.3,116.6 127.3,116.6 133.4,116.6 119.7,82.5 "></polygon> <polygon class="st0" points="39.3,89.5 39.3,89.5 28.4,116.6 28.4,116.6 30.2,116.6 40.1,91.9 45.1,104.6 49.9,116.6 56,116.6 42.1,82.3 "></polygon> <polygon class="st0" points="183.8,82.3 180.8,89.5 180.8,89.5 170.2,116.6 170.2,116.6 172,116.6 181.8,91.9 186.8,104.6 191.5,116.6 191.7,116.6 197.5,116.6 "></polygon> <g> <path class="st0" d="M18,91.9c-0.2,3.8-0.6,5.8-1.8,6.8l-0.6,0.4l0.8-0.2c2.4-0.6,7.2-2.2,7.2-7c0-4.2-3.2-7.2-8.8-8.2 C14.8,83.9,18.4,84.9,18,91.9"></path> <path class="st0" d="M16.6,99.7c0,0,3.2,1.2,3.2,8.2c0,8-4.2,8.6-4.6,8.6c7-0.4,10.7-3.2,10.7-8.2C25.6,103,20.8,100.7,16.6,99.7"></path> <path class="st0" d="M161.1,91.9c0-7-8-8.2-10.5-8.4c0,0,4.8,1,4.8,8.4c0,3.6-0.8,5.8-2.4,6.8l-1,0.4l1-0.2 C154.9,98.5,161.1,96.9,161.1,91.9"></path> <path class="st0" d="M162.5,111L162.5,111c0-5.4,0-10.1-9-11.5c0,0,2.4,1.2,2.8,4c0.2,0.8,0.2,2.6,0.2,5.4c0,5.4,2.4,8,7.6,8 c0.6,0,1.8-0.4,1.8-0.4c-0.2,0-0.4,0-0.6,0C162.5,116.6,162.5,114.2,162.5,111"></path> </g> <polygon class="st0" points="80.9,83.7 61.4,116.6 67.4,116.6 86.9,83.7 "></polygon> <g> <path class="st0" d="M72.9,83.9v-0.2h-9v10.5v-1C65.2,87.7,68.4,84.5,72.9,83.9"></path> </g> <polygon class="st0" points="93.4,83.7 73.9,116.6 79.9,116.6 99.4,83.7 "></polygon> <g> <path class="st0" d="M88.3,116.4v0.2H100v-12.5l-0.2,1.2C98,112.2,94.2,115.8,88.3,116.4"></path> <path class="st0" d="M5.1,83.7H2.5v33h4c0.4,0,0.8,0,1.2,0h0.2v-33H7.7C6.9,83.7,5.9,83.7,5.1,83.7"></path> <path class="st0" d="M143.6,83.7h-3.8v33h5.4v-33h-0.6C144.4,83.7,144,83.7,143.6,83.7"></path> </g> <polygon class="st0" points="119.5,82.3 116.7,89.5 116.7,89.5 105.8,116.6 105.8,116.6 107.6,116.6 117.5,91.9 122.7,104.6 127.3,116.6 127.3,116.6 133.4,116.6 119.7,82.5 "></polygon> <polygon class="st0" points="39.3,89.5 39.3,89.5 28.4,116.6 28.4,116.6 30.2,116.6 40.1,91.9 45.1,104.6 49.9,116.6 56,116.6 42.1,82.3 "></polygon> <polygon class="st0" points="183.8,82.3 180.8,89.5 180.8,89.5 170.2,116.6 170.2,116.6 172,116.6 181.8,91.9 186.8,104.6 191.5,116.6 191.7,116.6 197.5,116.6 "></polygon> <g> <path class="st0" d="M18,91.9c-0.2,3.8-0.6,5.8-1.8,6.8l-0.6,0.4l0.8-0.2c2.4-0.6,7.2-2.2,7.2-7c0-4.2-3.2-7.2-8.8-8.2 C14.8,83.9,18.4,84.9,18,91.9"></path> <path class="st0" d="M16.6,99.7c0,0,3.2,1.2,3.2,8.2c0,8-4.2,8.6-4.6,8.6c7-0.4,10.7-3.2,10.7-8.2C25.6,103,20.8,100.7,16.6,99.7"></path> <path class="st0" d="M161.1,91.9c0-7-8-8.2-10.5-8.4c0,0,4.8,1,4.8,8.4c0,3.6-0.8,5.8-2.4,6.8l-1,0.4l1-0.2 C154.9,98.5,161.1,96.9,161.1,91.9"></path> <path class="st0" d="M162.5,111L162.5,111c0-5.4,0-10.1-9-11.5c0,0,2.4,1.2,2.8,4c0.2,0.8,0.2,2.6,0.2,5.4c0,5.4,2.4,8,7.6,8 c0.6,0,1.8-0.4,1.8-0.4c-0.2,0-0.4,0-0.6,0C162.5,116.6,162.5,114.2,162.5,111"></path> <path class="st0" d="M178.4,138.5h-3.6v-1.6h3.4v-1.2h-3.4v-1.4h3.6v-1.2h-5v6.6h5V138.5z M167.9,132.9c-2,0-3.4,1.4-3.4,3.4 c0,2.2,1.6,3.4,3.4,3.4c1.8,0,3.2-1.4,3.2-3.4c0-0.2,0-0.2,0-0.4h-3v1.2h1.6c-0.2,1-0.8,1.4-1.8,1.4c-1.2,0-2-0.8-2-2.2 c0-1.2,0.8-2.2,2-2.2c0.6,0,1.2,0.2,1.6,0.6l1-1C169.8,133.3,169,132.9,167.9,132.9 M159.5,134.3l1,2.6h-2L159.5,134.3z M160.3,133.1h-1.6l-2.6,6.6h1.4l0.6-1.6h2.8l0.6,1.6h1.4L160.3,133.1z M155.3,133.1h-5.4v1.2h2v5.4h1.4v-5.4h2V133.1z M147.6,133.1h-1.4v6.6h1.4V133.1z M141.4,134.3c0.6,0,1,0.2,1,0.8c0,0.6-0.4,0.8-1,0.8H140v-1.6H141.4z M138.6,133.1v6.6h1.4 v-2.6h0.4l2,2.6h1.6l-2-2.6c1.2-0.2,2-0.8,2-2c0-1.2-0.8-2-2.4-2H138.6z M136,138.5h-3.6v-1.6h3.4v-1.2h-3.4v-1.4h3.6v-1.2h-5v6.6 h5V138.5z M123.7,133.1h-1.4v6.6h1.4v-2.8h3.2v2.8h1.4v-6.6h-1.4v2.6h-3.2V133.1z M116.3,138.5h-3.6v-1.6h3.4v-1.2h-3.4v-1.4h3.6 v-1.2h-4.8v6.6h5v-1.2H116.3z M108.8,138.5h-3.6v-1.6h3.4v-1.2h-3.4v-1.4h3.6v-1.2h-5v6.6h5V138.5z M101.2,135.7h-3.4v-1.6h3.6v-1 h-4.8v6.6H98v-2.6h3.4v-1.4H101.2z M93.8,135.7h-3.4v-1.6H94v-1h-4.8v6.6h1.4v-2.6H94v-1.4H93.8z M83.3,134.1c1.2,0,2,0.8,2,2.2 c0,1.2-0.8,2.2-2,2.2c-1.2,0-2-0.8-2-2.2C81.1,135.1,82.1,134.1,83.3,134.1 M83.3,132.9c-2,0-3.4,1.4-3.4,3.4s1.4,3.4,3.4,3.4 c2,0,3.4-1.4,3.4-3.4C86.7,134.3,85.3,132.9,83.3,132.9 M75.1,132.9c-2,0-3.4,1.4-3.4,3.4s1.4,3.4,3.4,3.4c1.2,0,2.2-0.6,2.8-1.4 l-1-0.8c-0.4,0.6-1,1-1.8,1c-1.2,0-2-0.8-2-2.2c0-1.2,0.8-2.2,2-2.2c0.8,0,1.4,0.4,1.8,1l1.2-0.6 C77.3,133.5,76.3,132.9,75.1,132.9 M65.6,133.1h-1.4v4.4l-3.4-4.4h-1.2v6.6H61v-4.4l3.4,4.4h1.2V133.1z M54.2,134.3l1,2.6h-2 L54.2,134.3z M55,133.1h-1.6l-2.6,6.6h1.4l0.6-1.6h2.8l0.6,1.6h1.4L55,133.1z M48.7,133.1h-1.4v6.6h1.4V133.1z M45.1,138.5h-3.4 v-5.4h-1.4v6.6h4.8V138.5z M34.9,134.3l1,2.6h-2L34.9,134.3z M35.7,133.1h-1.6l-2.6,6.6h1.4l0.6-1.6h2.8l0.6,1.6h1.4L35.7,133.1z M30.6,133.1h-5.4v1.2h2v5.4h1.4v-5.4h2V133.1z M23,133.1h-1.4v6.6H23V133.1z"></path> </g> </g> </svg> 